<svg id="SvgjsSvg1032" xmlns="http://www.w3.org/2000/svg" version="1.1" xmlns:xlink="http://www.w3.org/1999/xlink" xmlns:svgjs="http://svgjs.com/svgjs" width="115" height="69" viewBox="0 0 115 69"><title>Forma 1</title><desc>Created with Avocode.</desc><defs id="SvgjsDefs1033"></defs><path id="SvgjsPath1034" d="M935.61 1224.49L935.61 1192.27L938.423 1191.31L935.61 1190.36L934.501 1189.9799999999998L881.831 1172.12L825.231 1191.31L846.077 1198.3899999999999L846.071 1198.3999999999999L848.188 1199.1L853.043 1200.79L853.045 1200.78L882.223 1210.06L911.121 1200.6499999999999L911.125 1200.6699999999998L917.54 1198.4799999999998L917.514 1198.4099999999999L932.96 1193.1699999999998L932.96 1224.0399999999997L928.753 1231.6799999999998L934.142 1240.4899999999998L939.216 1231.6399999999999ZM934.13 1235.16L932.097 1231.24L934.039 1227.13L936.134 1231.2800000000002ZM882.029 1213.99L855.529 1205.56L854.145 1211.6499999999999C853.848 1212.1499999999999 853.699 1212.6599999999999 853.699 1213.1699999999998C853.699 1217.9499999999998 874.6129999999999 1229.9099999999999 881.0849999999999 1229.9099999999999C887.757 1229.9099999999999 910.7429999999999 1217.83 910.7429999999999 1213.1699999999998C910.7429999999999 1212.81 910.6709999999999 1212.4999999999998 910.5619999999999 1212.0299999999997C910.4929999999999 1211.7599999999998 910.4089999999999 1211.4099999999999 910.3159999999999 1210.9499999999998L908.9449999999999 1205.35L882.227 1214.05Z " fill="#ffffff" fill-opacity="1" transform="matrix(1,0,0,1,-825,-1172)"></path></svg>