<svg id="SvgjsSvg1014" xmlns="http://www.w3.org/2000/svg" version="1.1" xmlns:xlink="http://www.w3.org/1999/xlink" xmlns:svgjs="http://svgjs.com/svgjs" width="124" height="117" viewBox="0 0 124 117"><title>Forma 1</title><desc>Created with Avocode.</desc><defs id="SvgjsDefs1015"></defs><path id="SvgjsPath1016" d="M306.374 826.243C309.966 848.682 293.94800000000004 865.5060000000001 293.94800000000004 865.5060000000001C293.94800000000004 865.5060000000001 280.74 843.2300000000001 258.52900000000005 836.5000000000001C301.73400000000004 868.0010000000001 277.14400000000006 907.2680000000001 277.14400000000006 907.2680000000001L289.6500000000001 907.2680000000001C289.6540000000001 907.2680000000001 318.7240000000001 857.2500000000001 306.3740000000001 826.2430000000002ZM273.091 879.916C269.689 885.787 265.75 889.869 265.75 889.869C265.75 889.869 267.318 884.4200000000001 270.72 878.556C271.44500000000005 877.3100000000001 272.182 876.171 272.91200000000003 875.104C270.213 876.034 264.91400000000004 878.37 262.18500000000006 883.091C258.42800000000005 889.566 261.00200000000007 898.054 261.00200000000007 898.054C261.00200000000007 898.054 269.66600000000005 896.033 273.41900000000004 889.558C276.15400000000005 884.837 275.533 879.095 274.99000000000007 876.307C274.4240000000001 877.462 273.80500000000006 878.666 273.09100000000007 879.916ZM310.66 875.111C311.387 876.1709999999999 312.13000000000005 877.31 312.85 878.556C316.255 884.4350000000001 317.821 889.869 317.821 889.869C317.821 889.869 313.882 885.787 310.48100000000005 879.916C309.76500000000004 878.673 309.14000000000004 877.4620000000001 308.583 876.307C308.04600000000005 879.1030000000001 307.42600000000004 884.8340000000001 310.153 889.5500000000001C313.90500000000003 896.0300000000001 322.564 898.0540000000001 322.564 898.0540000000001C322.564 898.0540000000001 325.14700000000005 889.566 321.391 883.0830000000001C318.656 878.3700000000001 313.36100000000005 876.0340000000001 310.66 875.1110000000001ZM272.908 814.712C272.182 813.649 271.445 812.506 270.724 811.262C267.322 805.3929999999999 265.75 799.952 265.75 799.952C265.75 799.952 269.689 804.029 273.087 809.908C273.80899999999997 811.1460000000001 274.428 812.354 274.983 813.514C275.529 810.721 276.15 804.98 273.419 800.267C269.666 793.788 261.006 791.7660000000001 261.006 791.7660000000001C261.006 791.7660000000001 258.436 800.2520000000001 262.18899999999996 806.7310000000001C264.91799999999995 811.4480000000001 270.217 813.7780000000001 272.90799999999996 814.7120000000001ZM252.027 846.275C245.22699999999998 846.275 239.71499999999997 844.909 239.71499999999997 844.909C239.71499999999997 844.909 245.22699999999998 843.54 252.027 843.54C253.47099999999998 843.54 254.831 843.6179999999999 256.114 843.711C253.95799999999997 841.844 249.28399999999996 838.437 243.81499999999997 838.437C236.31299999999996 838.437 230.22899999999996 844.905 230.22899999999996 844.905C230.22899999999996 844.905 236.31699999999995 851.377 243.81499999999997 851.3729999999999C249.27999999999997 851.3729999999999 253.95399999999998 847.9699999999999 256.111 846.107C254.827 846.204 253.46099999999998 846.275 252.027 846.275ZM339.752 838.445C334.289 838.445 329.615 841.84 327.455 843.711C328.743 843.614 330.103 843.54 331.539 843.544C338.342 843.544 343.851 844.909 343.851 844.909C343.851 844.909 338.342 846.275 331.547 846.275C330.103 846.275 328.74300000000005 846.204 327.45500000000004 846.107C329.612 847.9739999999999 334.28900000000004 851.377 339.74800000000005 851.3729999999999C347.25700000000006 851.3729999999999 353.33700000000005 844.9129999999999 353.33700000000005 844.9129999999999C353.33700000000005 844.9129999999999 347.249 838.4409999999999 339.75200000000007 838.4449999999999ZM295.167 854.044C298.904 852.271 300.12699999999995 847.045 297.902 842.3969999999999C295.673 837.7379999999999 290.832 835.3929999999999 287.09499999999997 837.1709999999999C283.354 838.948 282.133 844.174 284.361 848.838C286.584 853.483 291.426 855.8299999999999 295.167 854.044ZM269.186 858.944C268.39 859.483 267.541 860.03 266.611 860.569C262.219 863.0949999999999 258.147 864.2679999999999 258.147 864.2679999999999C258.147 864.2679999999999 261.198 861.3359999999999 265.591 858.8069999999999C266.522 858.271 267.427 857.8119999999999 268.293 857.3939999999999C266.202 856.9919999999998 261.903 856.5279999999999 258.377 858.5679999999999C253.52800000000002 861.3549999999999 252.01500000000001 867.7959999999998 252.01500000000001 867.7959999999998C252.01500000000001 867.7959999999998 258.36600000000004 869.7069999999998 263.213 866.9189999999999C266.74800000000005 864.8869999999998 268.49100000000004 860.9489999999998 269.18600000000004 858.9439999999998ZM314.378 830.867C315.174 830.329 316.027 829.7819999999999 316.96 829.245C321.349 826.718 325.421 825.55 325.421 825.55C325.421 825.55 322.37 828.478 317.977 831.0029999999999C317.048 831.5389999999999 316.14099999999996 832.006 315.28 832.4139999999999C317.368 832.8179999999999 321.66099999999994 833.2809999999998 325.18499999999995 831.2479999999998C330.03799999999995 828.4549999999998 331.54699999999997 822.0159999999998 331.54699999999997 822.0159999999998C331.54699999999997 822.0159999999998 325.2 820.1049999999999 320.35099999999994 822.8929999999998C316.8159999999999 824.9249999999998 315.07499999999993 828.8589999999998 314.37799999999993 830.8669999999998ZM325.185 858.568C321.657 856.536 317.368 856.992 315.273 857.394C316.141 857.808 317.048 858.275 317.97400000000005 858.807C322.36600000000004 861.336 325.41700000000003 864.264 325.41700000000003 864.264C325.41700000000003 864.264 321.353 863.098 316.956 860.569C316.023 860.034 315.17 859.483 314.37800000000004 858.9399999999999C315.07500000000005 860.949 316.81600000000003 864.887 320.34700000000004 866.9119999999999C325.19300000000004 869.7069999999999 331.547 867.7959999999999 331.547 867.7959999999999C331.547 867.7959999999999 330.031 861.3549999999999 325.185 858.568ZM258.381 831.252C261.90999999999997 833.281 266.202 832.818 268.29699999999997 832.418C267.42999999999995 832.009 266.522 831.539 265.59799999999996 831.0070000000001C261.20599999999996 828.4830000000001 258.15399999999994 825.5530000000001 258.15399999999994 825.5530000000001C258.15399999999994 825.5530000000001 262.22299999999996 826.7210000000001 266.61499999999995 829.2480000000002C267.5439999999999 829.7860000000002 268.39799999999997 830.3320000000001 269.19399999999996 830.8780000000002C268.49899999999997 828.8670000000002 266.756 824.9290000000002 263.22299999999996 822.8960000000002C258.37699999999995 820.1050000000001 252.02699999999996 822.0200000000002 252.02699999999996 822.0200000000002C252.02699999999996 822.0200000000002 253.53099999999995 828.4620000000002 258.381 831.2520000000002ZM290.765 815.345C290.765 810.2860000000001 291.784 806.19 291.784 806.19C291.784 806.19 292.807 810.2890000000001 292.807 815.345C292.807 816.413 292.755 817.426 292.677 818.383C294.07300000000004 816.777 296.622 813.3000000000001 296.622 809.24C296.622 803.655 291.784 799.1320000000001 291.784 799.1320000000001C291.784 799.1320000000001 286.94599999999997 803.6550000000001 286.94599999999997 809.24C286.94599999999997 813.3 289.49499999999995 816.777 290.88699999999994 818.383C290.8159999999999 817.426 290.76499999999993 816.413 290.76499999999993 815.345ZM301.517 827.192C302.656 825.223 303.978 823.85 303.978 823.85C303.978 823.85 303.456 825.682 302.309 827.65C302.069 828.0649999999999 301.822 828.451 301.574 828.81C302.485 828.4949999999999 304.26 827.708 305.17 826.132C306.43100000000004 823.9559999999999 305.57 821.1039999999999 305.57 821.1039999999999C305.57 821.1039999999999 302.65999999999997 821.79 301.403 823.9599999999999C300.492 825.5379999999999 300.69800000000004 827.4599999999999 300.88100000000003 828.4039999999999C301.064 828.0159999999998 301.27700000000004 827.6079999999998 301.51700000000005 827.1919999999999ZM281.988 828.806C281.748 828.447 281.5 828.065 281.255 827.6460000000001C280.112 825.6790000000001 279.59 823.854 279.59 823.854C279.59 823.854 280.90799999999996 825.2270000000001 282.051 827.188C282.289 827.604 282.496 828.012 282.687 828.4C282.866 827.4639999999999 283.07800000000003 825.538 282.165 823.956C280.904 821.782 278.00100000000003 821.104 278.00100000000003 821.104C278.00100000000003 821.104 277.13700000000006 823.952 278.396 826.129C279.31 827.708 281.087 828.491 281.988 828.806ZM310.671 845.313C311.395 845.936 312.964 847.079 314.793 847.079C317.311 847.079 319.349 844.909 319.349 844.909C319.349 844.909 317.311 842.7379999999999 314.793 842.7379999999999C312.964 842.7379999999999 311.395 843.8829999999999 310.671 844.5039999999999C311.101 844.4739999999999 311.555 844.449 312.043 844.449C314.32 844.449 316.176 844.905 316.176 844.905C316.176 844.905 314.32 845.365 312.043 845.361C311.555 845.372 311.101 845.345 310.671 845.313ZM310.477 809.897C313.875 804.0250000000001 317.81699999999995 799.9480000000001 317.81699999999995 799.9480000000001C317.81699999999995 799.9480000000001 316.24799999999993 805.3890000000001 312.8419999999999 811.258C312.1259999999999 812.494 311.38699999999994 813.645 310.6599999999999 814.7030000000001C313.36099999999993 813.7740000000001 318.6559999999999 811.44 321.3789999999999 806.7270000000001C325.1349999999999 800.248 322.5639999999999 791.7540000000001 322.5639999999999 791.7540000000001C322.5639999999999 791.7540000000001 313.90899999999993 793.7810000000002 310.1489999999999 800.2560000000001C307.4099999999999 804.9730000000001 308.0349999999999 810.7090000000001 308.5759999999999 813.503C309.13999999999993 812.354 309.7569999999999 811.1460000000001 310.4769999999999 809.897Z " fill="#ffffff" fill-opacity="1" transform="matrix(1,0,0,1,-230,-791)"></path></svg>