<svg id="SvgjsSvg1023" xmlns="http://www.w3.org/2000/svg" version="1.1" xmlns:xlink="http://www.w3.org/1999/xlink" xmlns:svgjs="http://svgjs.com/svgjs" width="111" height="62" viewBox="0 0 111 62"><title>Forma 1</title><desc>Created with Avocode.</desc><defs id="SvgjsDefs1024"></defs><path id="SvgjsPath1025" d="M1061.49 825.22L1043.81 833.378L1044.09 829.5110000000001L1055.54 824.321C1053.8999999999999 824.2040000000001 1052.21 824.159 1050.52 824.159C1044.19 824.159 1033.51 827.375 1021.68 832.086L983.77 822.044C980.227 821.106 976.4549999999999 821.684 973.352 823.6419999999999L971.4879999999999 824.818C969.6679999999999 825.966 969.6479999999999 828.622 971.4509999999999 829.797L994.242 844.644C988.798 847.44 983.632 850.279 979.079 852.991L967.3839999999999 846.774C965.4739999999999 845.759 963.2149999999999 845.638 961.209 846.445L960.102 846.8900000000001C958.451 847.5540000000001 957.759 849.5250000000001 958.632 851.0810000000001L965.074 862.5740000000002L965.077 862.5730000000002C962.646 864.6730000000002 961.261 866.4150000000002 961.261 867.6190000000003C961.261 871.2260000000002 965.6809999999999 872.1280000000003 969.577 872.1280000000003C976.527 872.1280000000003 1068.3 851.0290000000002 1068.3 831.9140000000002C1068.3 828.1290000000002 1065.72 826.2350000000002 1061.49 825.2200000000003ZM1022.79 862.542L1042.99 855.398C1043.88 855.083 1044.83 855.679 1044.94 856.62L1046.71 871.819C1047.15 875.6179999999999 1045.1100000000001 879.2729999999999 1041.66 880.885L1039.77 881.769C1038.58 882.321 1037.18 882.025 1036.32 881.042L1022.18 864.9100000000001C1021.4899999999999 864.1250000000001 1021.81 862.8890000000001 1022.79 862.542Z " fill="#ffffff" fill-opacity="1" transform="matrix(1,0,0,1,-958,-821)"></path></svg>