<svg id="SvgjsSvg1020" xmlns="http://www.w3.org/2000/svg" version="1.1" xmlns:xlink="http://www.w3.org/1999/xlink" xmlns:svgjs="http://svgjs.com/svgjs" width="91" height="92" viewBox="0 0 91 92"><title>Shape 1</title><desc>Created with Avocode.</desc><defs id="SvgjsDefs1021"></defs><path id="SvgjsPath1022" d="M807.303 816.483L787.781 816.483C784.3119999999999 795.351 756.7049999999999 795.361 753.2379999999999 816.483L733.717 816.483C729.029 816.483 725.216 820.3109999999999 725.216 825.016L725.216 882.741C725.216 887.446 729.029 891.275 733.717 891.275L807.303 891.275C811.99 891.275 815.804 887.447 815.804 882.741L815.804 825.016C815.804 820.3109999999999 811.99 816.483 807.303 816.483ZM807.303 884.621L733.717 884.621C732.684 884.621 731.8439999999999 883.778 731.8439999999999 882.741L731.8439999999999 852.511L760.66 859.8979999999999L760.66 864.2489999999999C760.66 866.0859999999999 762.144 867.5749999999999 763.9739999999999 867.5749999999999L777.045 867.5749999999999C778.875 867.5749999999999 780.3589999999999 866.0859999999999 780.3589999999999 864.2489999999999L780.3589999999999 859.8979999999999L809.175 852.511L809.175 882.741C809.175 883.778 808.3349999999999 884.621 807.303 884.621ZM759.985 816.307C761.939 804.403 779.08 804.405 781.034 816.306L781.064 816.4830000000001L759.956 816.4830000000001ZM767.289 860.922L767.289 851.5550000000001L773.731 851.5550000000001L773.731 860.922ZM809.176 845.645L780.359 853.031L780.359 848.2289999999999C780.359 846.391 778.875 844.9019999999999 777.0450000000001 844.9019999999999L763.974 844.9019999999999C762.144 844.9019999999999 760.6600000000001 846.391 760.6600000000001 848.2289999999999L760.6600000000001 853.031L731.844 845.645L731.844 825.016C731.844 823.98 732.6840000000001 823.137 733.7170000000001 823.137C734.7120000000001 823.137 805.8220000000001 823.137 807.3030000000001 823.137C808.3360000000001 823.137 809.1760000000002 823.9799999999999 809.1760000000002 825.016Z " fill="#ffffff" fill-opacity="1" transform="matrix(1,0,0,1,-725,-800)"></path></svg>