<svg id="SvgjsSvg1029" xmlns="http://www.w3.org/2000/svg" version="1.1" xmlns:xlink="http://www.w3.org/1999/xlink" xmlns:svgjs="http://svgjs.com/svgjs" width="88" height="98" viewBox="0 0 88 98"><title>Forma 1</title><desc>Created with Avocode.</desc><defs id="SvgjsDefs1030"></defs><path id="SvgjsPath1031" d="M624.786 1188.32C625.2249999999999 1184.27 628.871 1181.34 632.929 1181.77C636.9879999999999 1182.2 639.9209999999999 1185.83 639.483 1189.8799999999999C639.044 1193.9299999999998 635.4 1196.87 631.3409999999999 1196.4399999999998C627.2819999999999 1195.9999999999998 624.3469999999999 1192.37 624.786 1188.32ZM656.512 1175.57C656.794 1172.98 659.1279999999999 1171.1 661.733 1171.37C664.3349999999999 1171.6499999999999 666.218 1173.9799999999998 665.9369999999999 1176.57C665.6549999999999 1179.1699999999998 663.3169999999999 1181.05 660.7149999999999 1180.78C658.1099999999999 1180.5 656.2309999999999 1178.17 656.512 1175.57ZM693.38 1213.78C690.608 1216.79 685.891 1216.8999999999999 685.891 1216.8999999999999C685.891 1216.8999999999999 688.956 1222.62 687.579 1224.1999999999998C686.1999999999999 1225.7899999999997 682.375 1225.11 682.375 1225.11C682.375 1225.11 685.931 1227.6399999999999 685.931 1229.59C685.931 1231.55 679.922 1234.1499999999999 679.922 1234.1499999999999C679.922 1234.1499999999999 681.0260000000001 1244.9899999999998 671.996 1244.2399999999998C662.976 1243.4899999999998 661.458 1240.9899999999998 661.458 1240.9899999999998L658.7869999999999 1251.9399999999998L623.8629999999999 1251.9399999999998L625.0859999999999 1228.12C625.0859999999999 1228.12 603.6399999999999 1205.2199999999998 607.012 1184.7299999999998C608.708 1176.5499999999997 607.626 1159.4099999999999 636.424 1154.8899999999999C665.22 1150.36 691.163 1164.7399999999998 684.639 1196.1599999999999C684.639 1201.8899999999999 696.159 1210.7799999999997 693.38 1213.7799999999997ZM650.207 1192.14L650.33 1184.8100000000002L648.2270000000001 1182.2100000000003C648.2270000000001 1182.2100000000003 645.6780000000001 1182.1700000000003 644.4010000000001 1182.1500000000003C644.1250000000001 1181.5200000000002 643.8190000000001 1180.9100000000003 643.46 1180.3300000000004C644.1070000000001 1179.4400000000003 645.4050000000001 1177.6700000000003 645.4050000000001 1177.6700000000003L644.9060000000001 1174.3600000000004L638.9780000000001 1170.0500000000004L635.663 1170.5500000000004C635.663 1170.5500000000004 633.992 1172.8300000000004 633.157 1173.9700000000005C632.4540000000001 1173.9300000000005 631.7510000000001 1173.9300000000005 631.0640000000001 1174.0000000000005C630.339 1172.9500000000005 628.897 1170.8500000000004 628.897 1170.8500000000004L625.565 1170.4900000000005L619.503 1174.6500000000005L619.143 1177.9800000000005C619.143 1177.9800000000005 620.3240000000001 1179.7000000000005 620.917 1180.5600000000004C620.408 1181.3700000000003 619.97 1182.2400000000005 619.611 1183.1500000000003C618.665 1183.1300000000003 616.769 1183.0800000000004 616.769 1183.0800000000004L614.155 1185.1900000000003L613.958 1192.5100000000002C613.958 1192.5100000000002 614.486 1193.1700000000003 615.012 1193.8200000000002C615.536 1194.4700000000003 616.058 1195.1100000000001 616.058 1195.1100000000001C616.058 1195.1100000000001 618.553 1195.18 619.802 1195.21C620.128 1195.96 620.515 1196.68 620.9540000000001 1197.3600000000001C620.3760000000001 1198.3300000000002 619.2170000000001 1200.2800000000002 619.2170000000001 1200.2800000000002L619.7160000000001 1203.5900000000001L626.0290000000001 1207.3300000000002L626.4710000000001 1207.4900000000002L629.3480000000001 1206.8300000000002C629.3480000000001 1206.8300000000002 630.6890000000001 1204.5800000000002 631.363 1203.45C632.1540000000001 1203.48 632.9280000000001 1203.44 633.695 1203.32C634.3660000000001 1204.31 635.707 1206.29 635.707 1206.29L639.038 1206.6399999999999L645.125 1202.52C645.125 1202.52 645.744 1199.82 645.682 1199.66C645.615 1199.51 645.485 1199.2 645.485 1199.2C645.485 1199.2 644.21 1197.32 643.572 1196.38C643.976 1195.69 644.336 1194.96 644.632 1194.19C645.62 1194.21 647.597 1194.24 647.597 1194.24ZM665.613 1163.85L663.484 1164.1699999999998C663.484 1164.1699999999998 662.414 1165.6299999999999 661.8770000000001 1166.37C661.4230000000001 1166.34 660.975 1166.34 660.5350000000001 1166.3799999999999C660.07 1165.7099999999998 659.1410000000001 1164.36 659.1410000000001 1164.36L657.0040000000001 1164.1299999999999L653.1110000000001 1166.8L652.8800000000001 1168.94C652.8800000000001 1168.94 653.6410000000001 1170.04 654.0200000000001 1170.5900000000001C653.6940000000001 1171.1100000000001 653.4140000000001 1171.67 653.181 1172.2600000000002C652.5730000000001 1172.2400000000002 651.359 1172.2100000000003 651.359 1172.2100000000003L649.6840000000001 1173.5600000000002L649.5550000000001 1178.2600000000002L650.902 1179.9300000000003C650.902 1179.9300000000003 652.5060000000001 1179.9700000000003 653.306 1179.9900000000002C653.517 1180.4700000000003 653.7620000000001 1180.9400000000003 654.046 1181.3700000000003C653.673 1181.9900000000002 652.932 1183.2400000000002 652.932 1183.2400000000002L653.2520000000001 1185.3600000000001L657.2980000000001 1187.7700000000002L657.5840000000001 1187.8700000000001L659.427 1187.45C659.427 1187.45 660.291 1186 660.719 1185.27C661.23 1185.29 661.726 1185.27 662.2170000000001 1185.19C662.6480000000001 1185.8300000000002 663.5090000000001 1187.0900000000001 663.5090000000001 1187.0900000000001L665.6440000000001 1187.3200000000002L669.5530000000001 1184.68C669.5530000000001 1184.68 669.9540000000001 1182.94 669.9100000000001 1182.8400000000001C669.8670000000001 1182.7500000000002 669.7840000000001 1182.5500000000002 669.7840000000001 1182.5500000000002C669.7840000000001 1182.5500000000002 668.9660000000001 1181.3400000000001 668.5560000000002 1180.7400000000002C668.8140000000002 1180.3000000000002 669.0490000000002 1179.8300000000002 669.2390000000001 1179.3400000000001C669.8740000000001 1179.3500000000001 671.1410000000002 1179.3700000000001 671.1410000000002 1179.3700000000001L672.8160000000001 1178.0200000000002L672.8930000000001 1173.3300000000002L671.5470000000001 1171.66C671.5470000000001 1171.66 669.9130000000001 1171.63 669.0930000000002 1171.6200000000001C668.9140000000002 1171.21 668.7220000000002 1170.8200000000002 668.4900000000002 1170.45C668.9040000000002 1169.88 669.7370000000002 1168.75 669.7370000000002 1168.75L669.4170000000001 1166.63Z " fill="#ffffff" fill-opacity="1" transform="matrix(1,0,0,1,-606,-1154)"></path></svg>