<svg id="SvgjsSvg1026" xmlns="http://www.w3.org/2000/svg" version="1.1" xmlns:xlink="http://www.w3.org/1999/xlink" xmlns:svgjs="http://svgjs.com/svgjs" width="108" height="84" viewBox="0 0 108 84"><title>Forma 1</title><desc>Created with Avocode.</desc><defs id="SvgjsDefs1027"></defs><path id="SvgjsPath1028" d="M457.608 1241.57L408.838 1164.94C408.221 1163.97 407.15700000000004 1163.38 406.021 1163.3600000000001C404.885 1163.3500000000001 403.808 1163.92 403.165 1164.89L352.39000000000004 1241.52C351.689 1242.57 351.619 1243.95 352.208 1245.08C352.79900000000004 1246.21 353.95200000000006 1246.9199999999998 355.211 1246.9199999999998L454.752 1246.9199999999998C455.999 1246.9199999999998 457.141 1246.2299999999998 457.735 1245.11C458.325 1243.99 458.283 1242.6399999999999 457.608 1241.57ZM405.93 1173.11L428.972 1209.3C422.202 1203.71 413.226 1197.75 405.69599999999997 1197.75C398.39 1197.75 389.31499999999994 1203.39 382.246 1208.84ZM392.54 1212.86C392.166 1214.1 391.963 1215.4199999999998 391.963 1216.78C391.963 1224.11 397.791 1230.05 404.983 1230.05C412.174 1230.05 418.003 1224.11 418.003 1216.78C418.003 1215.53 417.82099999999997 1214.33 417.50899999999996 1213.18C422.306 1216.0800000000002 427.018 1219.74 430.29599999999994 1222.55C423.69499999999994 1228.3 412.92099999999994 1236.29 405.7029999999999 1236.29C398.3619999999999 1236.29 386.7459999999999 1228.08 379.67599999999993 1222.29C382.27199999999993 1219.95 387.23099999999994 1215.97 392.5399999999999 1212.86ZM372.011 1224.3C375.264 1227.19 385.03700000000003 1235.56 394.78700000000003 1239.99L361.61300000000006 1239.99ZM416.413 1239.99C426.10900000000004 1235.42 435.527 1226.7 438.318 1224L448.49199999999996 1239.99Z " fill="#ffffff" fill-opacity="1" transform="matrix(1,0,0,1,-351,-1163)"></path></svg>