<svg id="SvgjsSvg1017" xmlns="http://www.w3.org/2000/svg" version="1.1" xmlns:xlink="http://www.w3.org/1999/xlink" xmlns:svgjs="http://svgjs.com/svgjs" width="74" height="91" viewBox="0 0 74 91"><title>Forma 1</title><desc>Created with Avocode.</desc><defs id="SvgjsDefs1018"></defs><path id="SvgjsPath1019" d="M535.378 811.243C530.7280000000001 811.243 526.19 812.114 521.8900000000001 813.831C520.4800000000001 814.394 519.796 815.986 520.363 817.386C520.9300000000001 818.7869999999999 522.532 819.467 523.942 818.903C527.586 817.448 531.434 816.71 535.379 816.71C552.419 816.71 566.282 830.4830000000001 566.282 847.413L566.282 873.697C566.282 879.5360000000001 561.5010000000001 884.2860000000001 555.625 884.2860000000001C554.105 884.2860000000001 552.874 885.509 552.874 887.019C552.874 888.528 554.105 889.752 555.625 889.752C564.535 889.752 571.784 882.55 571.784 873.697L571.784 847.413C571.784 827.469 555.452 811.243 535.378 811.243ZM558.507 854.229C558.507 849.9870000000001 557.8259999999999 846.075 556.481 842.599C556.444 842.498 556.4 842.397 556.35 842.2990000000001C556.168 841.9390000000001 555.914 841.6340000000001 555.612 841.3950000000001C555.4 841.2270000000001 555.1669999999999 841.0930000000001 554.9209999999999 840.9950000000001C554.4269999999999 840.7970000000001 553.8729999999999 840.7410000000001 553.328 840.8560000000001C553.115 840.9000000000001 552.906 840.9700000000001 552.7049999999999 841.0660000000001C552.5479999999999 841.1410000000002 552.401 841.2280000000002 552.2649999999999 841.3270000000001C548.2459999999999 844.0900000000001 542.1189999999999 845.6810000000002 535.4409999999999 845.6940000000001C533.9209999999999 845.6970000000001 532.6919999999999 846.9240000000001 532.6949999999999 848.4330000000001C532.698 849.9410000000001 533.929 851.1610000000001 535.4459999999999 851.1610000000001C535.4479999999999 851.1610000000001 535.4499999999999 851.1610000000001 535.4519999999999 851.1610000000001C541.7119999999999 851.148 547.6449999999999 849.883 552.2849999999999 847.623C552.7639999999999 849.671 553.0049999999999 851.8820000000001 553.0049999999999 854.229C553.0049999999999 862.474 548.7539999999999 870.057 541.9119999999999 874.0200000000001C539.247 875.5630000000001 537.232 876.253 535.3779999999999 876.2570000000001C533.525 876.253 531.5089999999999 875.5630000000001 528.8449999999999 874.0200000000001C522.0029999999999 870.0570000000001 517.752 862.474 517.752 854.229C517.752 851.884 517.9929999999999 849.6740000000001 518.471 847.628C518.98 847.8760000000001 519.504 848.113 520.042 848.337L520.3190000000001 848.452C522.1630000000001 849.223 523.4960000000001 849.78 525.0290000000001 849.13C526.5350000000001 848.492 527.0500000000001 847.16 527.6460000000001 845.618C527.773 845.2900000000001 527.917 844.918 528.0880000000001 844.4960000000001C528.816 842.705 529.6160000000001 840.4970000000001 529.9100000000001 839.469C530.3260000000001 838.017 529.479 836.505 528.017 836.0920000000001C526.5550000000001 835.6790000000001 525.0340000000001 836.5210000000001 524.618 837.9730000000001C524.403 838.7230000000001 523.696 840.701 522.985 842.45C522.833 842.8240000000001 522.701 843.163 522.583 843.4680000000001C522.539 843.4490000000001 522.495 843.431 522.451 843.4130000000001L522.169 843.2950000000001C520.8 842.7260000000001 519.563 842.0640000000001 518.492 841.3270000000001C518.3589999999999 841.2300000000001 518.2149999999999 841.1440000000001 518.0609999999999 841.0700000000002C517.857 840.9720000000002 517.6439999999999 840.9000000000002 517.4279999999999 840.8550000000001C516.8929999999999 840.7430000000002 516.3489999999999 840.7950000000002 515.8619999999999 840.9850000000001C515.5949999999998 841.0890000000002 515.3419999999999 841.2340000000002 515.1159999999999 841.4190000000001C514.8289999999998 841.6530000000001 514.5859999999999 841.9480000000001 514.4099999999999 842.2940000000001C514.3589999999998 842.3940000000001 514.3139999999999 842.4960000000001 514.2759999999998 842.6000000000001C512.9319999999998 846.0750000000002 512.2499999999999 849.9870000000001 512.2499999999999 854.2290000000002C512.2499999999999 864.4110000000002 517.5469999999999 873.8040000000002 526.0739999999998 878.7430000000002C529.6249999999999 880.7990000000002 532.4919999999998 881.7180000000002 535.3709999999999 881.7230000000002C535.3739999999999 881.7230000000002 535.3759999999999 881.7230000000002 535.3779999999998 881.7230000000002C535.3799999999998 881.7230000000002 535.3829999999998 881.7230000000002 535.3849999999998 881.7230000000002C538.2639999999998 881.7180000000002 541.1319999999997 880.7990000000002 544.6819999999998 878.7430000000002C553.2099999999998 873.8040000000002 558.5069999999998 864.4110000000002 558.5069999999998 854.2290000000002ZM556.01 896.494C549.501 894.52 545.644 891.712 544.547 888.148C544.1030000000001 886.705 542.567 885.892 541.111 886.3340000000001C539.659 886.7760000000001 538.841 888.3030000000001 539.285 889.7470000000001C540.9499999999999 895.1560000000001 546.0369999999999 899.1850000000001 554.403 901.7230000000001C554.671 901.8040000000001 554.942 901.8430000000001 555.208 901.8430000000001C556.386 901.8430000000001 557.476 901.085 557.838 899.907C558.281 898.4630000000001 557.463 896.9350000000001 556.01 896.494ZM529.484 886.334C528.0310000000001 885.8919999999999 526.493 886.7049999999999 526.0490000000001 888.149C524.9520000000001 891.712 521.0960000000001 894.52 514.5870000000001 896.495C513.1330000000002 896.9350000000001 512.315 898.463 512.7590000000001 899.907C513.1210000000001 901.085 514.2110000000001 901.8430000000001 515.3890000000001 901.8430000000001C515.6550000000001 901.8430000000001 515.9250000000001 901.8040000000001 516.1930000000001 901.7230000000001C524.5600000000001 899.1850000000001 529.6460000000001 895.1560000000001 531.3110000000001 889.7470000000001C531.7550000000001 888.3030000000001 530.9370000000001 886.7750000000001 529.4840000000002 886.3340000000001ZM515.133 889.751C506.223 889.751 498.97400000000005 882.549 498.97400000000005 873.696L498.97400000000005 847.412C498.97400000000005 846.116 499.04400000000004 844.808 499.18300000000005 843.527C499.34700000000004 842.0260000000001 500.70500000000004 840.9390000000001 502.21400000000006 841.1030000000001C503.7250000000001 841.2660000000001 504.81700000000006 842.614 504.65400000000005 844.115C504.535 845.201 504.47600000000006 846.311 504.47600000000006 847.413L504.47600000000006 873.696C504.47600000000006 879.5350000000001 509.25700000000006 884.2850000000001 515.133 884.2850000000001C516.653 884.2850000000001 517.884 885.5090000000001 517.884 887.018C517.884 888.528 516.653 889.7520000000001 515.133 889.751Z " fill="#ffffff" fill-opacity="1" transform="matrix(1,0,0,1,-498,-811)"></path></svg>