<svg id="SvgjsSvg1061" xmlns="http://www.w3.org/2000/svg" version="1.1" xmlns:xlink="http://www.w3.org/1999/xlink" xmlns:svgjs="http://svgjs.com/svgjs" width="9" height="6" viewBox="0 0 9 6"><title>Check</title><desc>Created with Avocode.</desc><defs id="SvgjsDefs1062"></defs><path id="SvgjsPath1063" d="M192.55 224.425L188.00900000000001 228.71300000000002C187.85500000000002 228.85800000000003 187.64100000000002 228.94700000000003 187.406 228.94700000000003C187.171 228.94700000000003 186.958 228.85800000000003 186.804 228.71300000000002L184.249 226.3C184.095 226.155 184 225.954 184 225.733C184 225.288 184.381 224.928 184.852 224.928C185.08700000000002 224.928 185.3 225.019 185.453 225.163L187.406 227.007L191.346 223.28900000000002C191.5 223.14200000000002 191.713 223.05300000000003 191.949 223.05300000000003C192.419 223.05300000000003 192.8 223.41300000000004 192.8 223.85600000000002C192.8 224.07900000000004 192.705 224.28000000000003 192.55 224.425 " fill="#ffffff" fill-opacity="1" transform="matrix(1,0,0,1,-184,-223)"></path></svg>