<svg id="SvgjsSvg1011" xmlns="http://www.w3.org/2000/svg" version="1.1" xmlns:xlink="http://www.w3.org/1999/xlink" xmlns:svgjs="http://svgjs.com/svgjs" width="11" height="16" viewBox="0 0 11 16"><title>Forma 1</title><desc>Created with Avocode.</desc><defs id="SvgjsDefs1012"></defs><path id="SvgjsPath1013" d="M640.5 1195C637.467 1195 635 1197.37 635 1200.29C635 1201.47 635.78 1203.3799999999999 637.384 1206.1499999999999C638.519 1208.11 639.635 1209.7399999999998 639.682 1209.81L640.5 1211L641.318 1209.81C641.364 1209.74 642.481 1208.11 643.616 1206.1499999999999C645.22 1203.3799999999999 646 1201.4699999999998 646 1200.29C646 1197.37 643.533 1195 640.5 1195ZM640.5 1203C638.925 1203 637.649 1201.77 637.649 1200.26C637.649 1198.74 638.925 1197.51 640.5 1197.51C642.074 1197.51 643.351 1198.74 643.351 1200.26C643.351 1201.77 642.074 1203 640.5 1203Z " fill="#d1d1d1" fill-opacity="1" transform="matrix(1,0,0,1,-635,-1195)"></path></svg>