<svg id="SvgjsSvg1014" xmlns="http://www.w3.org/2000/svg" version="1.1" xmlns:xlink="http://www.w3.org/1999/xlink" xmlns:svgjs="http://svgjs.com/svgjs" width="14" height="14" viewBox="0 0 14 14"><title>Shape 1</title><desc>Created with Avocode.</desc><defs id="SvgjsDefs1015"></defs><path id="SvgjsPath1016" d="M777 1196C773.134 1196 770 1199.13 770 1203C770 1206.87 773.134 1210 777 1210C780.866 1210 784 1206.87 784 1203C784 1199.13 780.866 1196 777 1196ZM780.026 1204.33L777.058 1204.33C777.048 1204.33 777.039 1204.33 777.029 1204.33C777.019 1204.33 777.01 1204.33 777 1204.33C776.732 1204.33 776.516 1204.11 776.516 1203.85L776.516 1198.8999999999999C776.516 1198.6399999999999 776.732 1198.4199999999998 777 1198.4199999999998C777.267 1198.4199999999998 777.484 1198.6399999999999 777.484 1198.8999999999999L777.484 1203.36L780.0260000000001 1203.36C780.2930000000001 1203.36 780.5100000000001 1203.58 780.5100000000001 1203.85C780.5100000000001 1204.11 780.2930000000001 1204.33 780.0260000000001 1204.33Z " fill="#d1d1d1" fill-opacity="1" transform="matrix(1,0,0,1,-770,-1196)"></path></svg>