<svg id="SvgjsSvg1035" xmlns="http://www.w3.org/2000/svg" version="1.1" xmlns:xlink="http://www.w3.org/1999/xlink" xmlns:svgjs="http://svgjs.com/svgjs" width="22" height="12" viewBox="0 0 22 12"><title>ARROW / UP</title><desc>Created with Avocode.</desc><defs id="SvgjsDefs1036"></defs><path id="SvgjsPath1037" d="M641.138 2434.48L648.9970000000001 2426.62L656.9590000000001 2434.58L656.9590000000001 2434.58C657.229 2434.84 657.596 2435 658.0000000000001 2435C658.8290000000001 2435 659.5000000000001 2434.33 659.5000000000001 2433.5C659.5000000000001 2433.1 659.3400000000001 2432.73 659.0790000000001 2432.46L659.08 2432.46L650.08 2423.46L650.0790000000001 2423.46C649.807 2423.18 649.4240000000001 2423 649.0000000000001 2423C648.9990000000001 2423 648.9980000000002 2423 648.9970000000001 2423C648.9960000000001 2423 648.994 2423 648.993 2423C648.5690000000001 2423 648.187 2423.18 647.9140000000001 2423.46L647.9130000000001 2423.46L638.9130000000001 2432.46L638.9170000000001 2432.46C638.6590000000001 2432.73 638.5000000000001 2433.1 638.5000000000001 2433.5C638.5000000000001 2434.33 639.1720000000001 2435 640.0000000000001 2435C640.4550000000002 2435 640.8620000000001 2434.8 641.1380000000001 2434.48Z " fill="#d0d6dd" fill-opacity="1" transform="matrix(1,0,0,1,-638,-2423)"></path></svg>