<svg id="SvgjsSvg1008" xmlns="http://www.w3.org/2000/svg" version="1.1" xmlns:xlink="http://www.w3.org/1999/xlink" xmlns:svgjs="http://svgjs.com/svgjs" width="12" height="14" viewBox="0 0 12 14"><title>Forma 1</title><desc>Created with Avocode.</desc><defs id="SvgjsDefs1009"></defs><path id="SvgjsPath1010" d="M427 1202.85C428.462 1202.85 429.647 1201.31 429.647 1199.4199999999998C429.647 1197.5299999999997 429.258 1195.9999999999998 427 1195.9999999999998C424.742 1195.9999999999998 424.353 1197.5299999999997 424.353 1199.4199999999998C424.353 1201.31 425.538 1202.85 427 1202.85ZM431.999 1208.16C432.00100000000003 1208.13 432 1207.95 431.999 1208.16ZM422 1208.07C422 1207.96 421.999 1208.04 422 1208.07ZM431.994 1207.94C431.94500000000005 1204.64 431.54100000000005 1203.7 428.449 1203.1100000000001C428.449 1203.1100000000001 428.014 1203.7 427 1203.7C425.986 1203.7 425.55 1203.1100000000001 425.55 1203.1100000000001C422.493 1203.7 422.064 1204.6200000000001 422.00800000000004 1207.8300000000002C422.00300000000004 1208.0900000000001 422.00100000000003 1208.1000000000001 422.00000000000006 1208.0700000000002C422.00000000000006 1208.13 422.00100000000003 1208.2400000000002 422.00100000000003 1208.42C422.00100000000003 1208.42 422.737 1210 427.00000000000006 1210C431.26300000000003 1210 431.9990000000001 1208.42 431.9990000000001 1208.42C431.9990000000001 1208.3000000000002 431.9990000000001 1208.22 431.9990000000001 1208.16C431.9980000000001 1208.18 431.99700000000007 1208.15 431.9940000000001 1207.94Z " fill="#d1d1d1" fill-opacity="1" transform="matrix(1,0,0,1,-421,-1196)"></path></svg>