<svg id="SvgjsSvg1008" xmlns="http://www.w3.org/2000/svg" version="1.1" xmlns:xlink="http://www.w3.org/1999/xlink" xmlns:svgjs="http://svgjs.com/svgjs" width="48" height="48" viewBox="0 0 48 48"><title>Shape 1</title><desc>Created with Avocode.</desc><defs id="SvgjsDefs1009"></defs><path id="SvgjsPath1010" d="M268.02 597.347L263.12199999999996 597.347L263.12199999999996 590.98C263.12199999999996 590.439 262.68399999999997 590 262.143 590L221.97999999999996 590C221.43899999999996 590 220.99999999999997 590.439 220.99999999999997 590.98L220.99999999999997 629.673C220.99999999999997 630.214 221.43899999999996 630.653 221.97999999999996 630.653L226.87799999999996 630.653L226.87799999999996 637.02C226.87799999999996 637.561 227.31599999999995 638 227.85699999999997 638L258.22299999999996 638C258.22399999999993 638 258.22399999999993 638 258.22399999999993 638C258.4789999999999 638 258.7299999999999 637.9 258.9169999999999 637.713L268.7129999999999 627.9169999999999C268.8999999999999 627.7299999999999 268.9969999999999 627.4789999999999 268.99799999999993 627.2239999999999L268.99999999999994 627.2239999999999L268.99999999999994 598.3269999999999C268.99999999999994 597.7859999999998 268.5609999999999 597.3469999999999 268.0199999999999 597.3469999999999ZM226.878 598.327L226.878 628.694L222.95899999999997 628.694L222.95899999999997 591.959L261.16299999999995 591.959L261.16299999999995 597.347L227.85699999999997 597.347C227.31599999999997 597.347 226.87799999999996 597.786 226.87799999999996 598.327ZM267.041 626.245L258.224 626.245C257.68399999999997 626.245 257.245 626.683 257.245 627.224L257.245 636.041L228.837 636.041L228.837 599.306L267.041 599.306ZM261 606L261 604L233 604L233 606ZM261 618L261 616L233 616L233 618ZM259.204 634.655L259.204 628.204L265.65500000000003 628.204ZM248 612L248 610L233 610L233 612ZM248 624L248 622L233 622L233 624ZM237 630L237 628L233 628L233 630ZM242 630L242 628L238 628L238 630ZM246 630L246 628L243 628L243 630Z " fill="#4ca7f8" fill-opacity="1" transform="matrix(1,0,0,1,-221,-590)"></path></svg>