<svg id="SvgjsSvg1011" xmlns="http://www.w3.org/2000/svg" version="1.1" xmlns:xlink="http://www.w3.org/1999/xlink" xmlns:svgjs="http://svgjs.com/svgjs" width="45" height="49" viewBox="0 0 45 49"><title>Shape 1</title><desc>Created with Avocode.</desc><defs id="SvgjsDefs1012"></defs><path id="SvgjsPath1013" d="M718.826 621.604L745.5070000000001 621.604C748.532 621.604 751.0000000000001 619.157 751.0000000000001 616.158L751.0000000000001 605.03C751.0000000000001 605.02 751.0000000000001 605.001 751.0000000000001 604.991C751.0000000000001 604.961 751.0000000000001 604.942 751.0000000000001 604.912C751.0000000000001 604.892 751.0000000000001 604.873 750.9900000000001 604.8530000000001C750.9900000000001 604.8330000000001 750.9800000000001 604.8040000000001 750.9800000000001 604.7840000000001C750.9800000000001 604.7640000000001 750.9700000000001 604.7440000000001 750.9700000000001 604.7250000000001C750.9600000000002 604.7050000000002 750.9600000000002 604.6850000000002 750.9500000000002 604.6550000000001C750.9400000000002 604.6360000000001 750.9400000000002 604.6160000000001 750.9300000000002 604.5960000000001C750.9200000000002 604.5760000000001 750.9200000000002 604.5570000000001 750.9100000000002 604.5370000000001C750.9010000000002 604.5170000000002 750.8910000000002 604.4980000000002 750.8810000000002 604.4680000000002C750.8710000000002 604.4480000000002 750.8610000000002 604.4290000000002 750.8510000000002 604.4190000000002C750.8410000000002 604.3990000000002 750.8310000000002 604.3790000000002 750.8210000000003 604.3590000000003C750.8110000000003 604.3400000000003 750.8010000000003 604.3300000000003 750.7910000000003 604.3100000000003C750.7810000000003 604.2900000000003 750.7610000000003 604.2710000000003 750.7510000000003 604.2510000000003C750.7410000000003 604.2310000000003 750.7310000000003 604.2210000000003 750.7110000000004 604.2020000000003C750.7010000000004 604.1820000000004 750.6820000000004 604.1720000000004 750.6720000000004 604.1520000000004C750.6620000000004 604.1330000000004 750.6420000000004 604.1230000000004 750.6320000000004 604.1030000000004C750.6220000000004 604.0830000000004 750.6020000000004 604.0730000000004 750.5920000000004 604.0640000000004C750.5720000000005 604.0440000000004 750.5620000000005 604.0340000000004 750.5420000000005 604.0140000000005C750.5220000000005 604.0040000000005 750.5120000000005 603.9840000000005 750.4920000000005 603.9750000000005C750.4730000000005 603.9650000000005 750.4530000000005 603.9450000000005 750.4330000000006 603.9350000000005C750.4130000000006 603.9250000000005 750.4030000000006 603.9160000000005 750.3830000000006 603.9060000000005C750.3630000000006 603.8960000000005 750.3430000000006 603.8860000000005 750.3230000000007 603.8660000000006C750.3030000000007 603.8560000000006 750.2840000000007 603.8470000000005 750.2640000000007 603.8370000000006C750.2440000000007 603.8270000000006 750.2240000000007 603.8170000000006 750.2040000000007 603.8070000000006C750.1840000000008 603.7970000000006 750.1640000000008 603.7870000000006 750.1440000000008 603.7770000000006C750.1240000000008 603.7680000000006 750.1040000000008 603.7680000000006 750.0840000000009 603.7580000000006C750.0650000000009 603.7480000000006 750.0350000000009 603.7380000000006 750.0150000000009 603.7380000000006C749.9950000000009 603.7380000000006 749.9750000000009 603.7280000000006 749.9650000000009 603.7280000000006C749.935000000001 603.7180000000006 749.915000000001 603.7180000000006 749.8850000000009 603.7180000000006C749.8750000000009 603.7180000000006 749.8650000000009 603.7080000000007 749.8460000000009 603.7080000000007L716.0290000000009 599.0820000000007L716.0290000000009 594.4060000000006C716.0290000000009 594.3560000000007 716.0290000000009 594.3070000000006 716.0190000000009 594.2670000000006C716.0190000000009 594.2570000000006 716.0190000000009 594.2480000000006 716.0090000000009 594.2280000000006C716.0090000000009 594.1980000000007 715.9990000000009 594.1690000000007 715.9990000000009 594.1390000000006C715.9890000000009 594.1100000000006 715.9890000000009 594.0900000000006 715.979000000001 594.0600000000006C715.979000000001 594.0400000000006 715.969000000001 594.0310000000006 715.969000000001 594.0110000000006C715.959000000001 593.9810000000007 715.949000000001 593.9520000000007 715.939000000001 593.9220000000006C715.939000000001 593.9120000000006 715.929000000001 593.8930000000006 715.929000000001 593.8830000000006C715.919000000001 593.8530000000006 715.910000000001 593.8330000000007 715.890000000001 593.8040000000007C715.880000000001 593.7940000000007 715.880000000001 593.7740000000007 715.870000000001 593.7640000000007C715.860000000001 593.7440000000007 715.850000000001 593.7250000000007 715.8300000000011 593.7050000000007C715.8200000000011 593.6850000000007 715.8100000000011 593.6750000000008 715.8000000000011 593.6560000000007C715.7900000000011 593.6360000000008 715.7800000000011 593.6260000000008 715.7700000000011 593.6060000000008C715.7600000000011 593.5870000000008 715.7400000000011 593.5670000000008 715.7300000000012 593.5470000000008C715.7200000000012 593.5370000000008 715.7100000000012 593.5270000000008 715.7010000000012 593.5180000000008C715.6810000000012 593.4980000000008 715.6610000000012 593.4780000000009 715.6410000000012 593.4580000000009C715.6310000000012 593.4490000000009 715.6210000000012 593.4390000000009 715.6110000000012 593.4290000000009C715.5910000000013 593.4090000000009 715.5710000000013 593.3890000000009 715.5410000000012 593.3700000000009C715.5310000000012 593.3600000000009 715.5120000000012 593.3500000000009 715.5020000000012 593.3400000000009C715.4820000000012 593.320000000001 715.4620000000012 593.310000000001 715.4420000000013 593.291000000001C715.4120000000013 593.271000000001 715.3820000000013 593.251000000001 715.3620000000012 593.241000000001C715.3520000000012 593.232000000001 715.3420000000012 593.232000000001 715.3320000000012 593.222000000001C715.2930000000013 593.202000000001 715.2430000000012 593.182000000001 715.2030000000012 593.163000000001L707.8680000000012 590.1040000000011C707.1820000000012 589.8180000000011 706.3960000000012 590.134000000001 706.1070000000012 590.8140000000011C705.8180000000012 591.4950000000011 706.1370000000012 592.2750000000011 706.8230000000012 592.5610000000011L713.3320000000012 595.283000000001L713.3320000000012 624.465000000001C713.3320000000012 627.227000000001 715.4220000000013 629.5160000000011 718.1190000000013 629.861000000001C717.6310000000012 630.670000000001 717.3430000000013 631.617000000001 717.3430000000013 632.623000000001C717.3430000000013 635.593000000001 719.7810000000013 638.0000000000009 722.7660000000013 638.0000000000009C725.7520000000013 638.0000000000009 728.1900000000013 635.5830000000009 728.1900000000013 632.623000000001C728.1900000000013 631.637000000001 727.9220000000013 630.700000000001 727.4440000000013 629.911000000001L739.5260000000013 629.911000000001C739.0480000000014 630.710000000001 738.7790000000014 631.637000000001 738.7790000000014 632.623000000001C738.7790000000014 635.593000000001 741.2170000000013 638.0000000000009 744.2030000000013 638.0000000000009C747.1880000000014 638.0000000000009 749.6270000000013 635.5830000000009 749.6270000000013 632.623000000001C749.6270000000013 629.664000000001 747.1880000000014 627.247000000001 744.2030000000013 627.247000000001L718.8260000000014 627.247000000001C717.2730000000014 627.247000000001 716.0190000000014 625.9940000000009 716.0190000000014 624.4650000000009L716.0190000000014 620.854000000001C716.8350000000014 621.328000000001 717.8000000000013 621.604000000001 718.8260000000014 621.604000000001ZM746.95 632.614C746.95 634.113 745.716 635.327 744.2130000000001 635.327C742.71 635.327 741.4760000000001 634.103 741.4760000000001 632.614C741.4760000000001 631.124 742.7100000000002 629.9010000000001 744.2130000000001 629.9010000000001C745.7160000000001 629.9010000000001 746.95 631.114 746.95 632.614ZM725.513 632.614C725.513 634.113 724.279 635.327 722.7760000000001 635.327C721.2740000000001 635.327 720.0400000000001 634.103 720.0400000000001 632.614C720.0400000000001 631.124 721.2740000000001 629.9010000000001 722.7760000000001 629.9010000000001C724.2790000000001 629.9010000000001 725.513 631.114 725.513 632.614ZM745.507 618.94L718.8259999999999 618.94C717.2729999999999 618.94 716.0189999999999 617.6880000000001 716.0189999999999 616.158L716.0189999999999 601.765L748.3129999999999 606.175L748.3129999999999 616.1479999999999C748.3129999999999 617.6969999999999 747.0489999999999 618.9399999999999 745.5069999999998 618.9399999999999Z " fill="#4ca7f8" fill-opacity="1" transform="matrix(1,0,0,1,-706,-589)"></path></svg>