<svg id="SvgjsSvg1000" xmlns="http://www.w3.org/2000/svg" version="1.1" xmlns:xlink="http://www.w3.org/1999/xlink" xmlns:svgjs="http://svgjs.com/svgjs" width="18" height="15" viewBox="0 0 18 15"><title>Arrow</title><desc>Created with Avocode.</desc><defs id="SvgjsDefs1001"></defs><path id="SvgjsPath1007" d="M765.766 1754.22L780.3109499999999 1754.22L775.3969999999999 1749.34C775.084 1749.03 775.084 1748.53 775.3969999999999 1748.22C775.709 1747.91 776.2159999999999 1747.91 776.5279999999999 1748.22L782.752 1754.39C782.8353099999999 1754.47277 782.8963699999999 1754.5698 782.9351899999999 1754.6734800000002C782.9768599999999 1754.7672200000002 782.9999999999999 1754.87091 782.9999999999999 1754.9800000000002C782.9999999999999 1755.0790100000002 782.9818099999999 1755.1732500000003 782.9486499999999 1755.2596700000001C782.9112299999999 1755.3767200000002 782.8456699999999 1755.48692 782.752 1755.5800000000002L776.5279999999999 1761.7500000000002C776.2159999999999 1762.0600000000002 775.709 1762.0600000000002 775.3969999999999 1761.7500000000002C775.084 1761.4400000000003 775.084 1760.9400000000003 775.3969999999999 1760.6300000000003L780.3189199999999 1755.7500000000002L765.766 1755.7500000000002C765.343 1755.7500000000002 765 1755.4100000000003 765 1754.9800000000002C765 1754.5600000000002 765.343 1754.2200000000003 765.766 1754.2200000000003Z " fill="#414141" fill-opacity="1" transform="matrix(1,0,0,1,-765,-1747)"></path></svg>