<svg xmlns="http://www.w3.org/2000/svg" width="99" height="102" viewBox="0 0 99 102"><title>Forma 1</title><path d="M40.836 4.336C38.541 1.982 35.489.687 32.244.687c-3.247 0-6.298 1.295-8.595 3.649l-1.131 1.16-1.131-1.16C19.092 1.982 16.04.687 12.794.687c-3.246 0-6.298 1.295-8.593 3.649-4.739 4.86-4.739 12.768 0 17.627L21.18 39.377c.278.286.623.461.985.528a1.847 1.847 0 0 0 1.692-.528l16.979-17.414c4.739-4.859 4.739-12.767 0-17.627zM38.181 19.24L22.518 35.304 6.855 19.24c-3.274-3.358-3.274-8.822 0-12.181 1.586-1.627 3.696-2.522 5.939-2.522s4.352.895 5.938 2.522l2.459 2.523c.705.722 1.951.722 2.655 0l2.459-2.523C27.891 5.432 30 4.537 32.244 4.537c2.243 0 4.352.895 5.937 2.522 3.275 3.359 3.275 8.823 0 12.181zm24.197-7.997c-4.65 0-9.188.871-13.488 2.588a2.727 2.727 0 0 0-1.527 3.555 2.757 2.757 0 0 0 3.579 1.517 30.706 30.706 0 0 1 11.437-2.193c17.04 0 30.903 13.773 30.903 30.703v26.284c0 5.839-4.781 10.589-10.657 10.589a2.741 2.741 0 0 0-2.751 2.733 2.742 2.742 0 0 0 2.751 2.733c8.91 0 16.159-7.202 16.159-16.055V47.413c0-19.944-16.332-36.17-36.406-36.17zm23.129 42.986c0-4.242-.681-8.154-2.026-11.63a2.71 2.71 0 0 0-.869-1.204 2.754 2.754 0 0 0-2.907-.329 2.788 2.788 0 0 0-.44.261c-4.019 2.763-10.146 4.354-16.824 4.367a2.743 2.743 0 0 0-2.746 2.739 2.742 2.742 0 0 0 2.751 2.728h.006c6.26-.013 12.193-1.278 16.833-3.538.479 2.048.72 4.259.72 6.606 0 8.245-4.251 15.828-11.093 19.791-2.665 1.543-4.68 2.233-6.534 2.237-1.853-.004-3.869-.694-6.533-2.237-6.842-3.963-11.093-11.546-11.093-19.791 0-2.345.241-4.555.719-6.601.509.248 1.033.485 1.571.709l.277.115c1.844.771 3.177 1.328 4.71.678 1.506-.638 2.021-1.97 2.617-3.512.127-.328.271-.7.442-1.122.728-1.791 1.528-3.999 1.822-5.027a2.73 2.73 0 0 0-1.893-3.377 2.753 2.753 0 0 0-3.399 1.881c-.215.75-.922 2.728-1.633 4.477-.152.374-.284.713-.402 1.018a7.385 7.385 0 0 0-.132-.055l-.282-.118c-1.369-.569-2.606-1.231-3.677-1.968a2.757 2.757 0 0 0-1.064-.472 2.756 2.756 0 0 0-2.312.564 2.718 2.718 0 0 0-.84 1.181c-1.344 3.475-2.026 7.387-2.026 11.629 0 10.182 5.297 19.575 13.824 24.514 3.551 2.056 6.418 2.975 9.297 2.98h.014c2.879-.005 5.747-.924 9.297-2.98 8.528-4.939 13.825-14.332 13.825-24.514zM83.01 96.494c-6.509-1.974-10.366-4.782-11.463-8.346a2.753 2.753 0 0 0-3.436-1.814 2.731 2.731 0 0 0-1.826 3.413c1.665 5.409 6.752 9.438 15.118 11.976a2.75 2.75 0 0 0 3.435-1.816 2.732 2.732 0 0 0-1.828-3.413zm-26.526-10.16a2.753 2.753 0 0 0-3.435 1.815c-1.097 3.563-4.953 6.371-11.462 8.346a2.729 2.729 0 0 0-1.828 3.412 2.75 2.75 0 0 0 3.434 1.816c8.367-2.538 13.453-6.567 15.118-11.976a2.73 2.73 0 0 0-1.827-3.413zm-14.351 3.417c-8.91 0-16.159-7.202-16.159-16.055V47.412c0-1.296.07-2.604.209-3.885a2.747 2.747 0 0 1 3.031-2.424 2.739 2.739 0 0 1 2.44 3.012 30.402 30.402 0 0 0-.178 3.298v26.283c0 5.839 4.781 10.589 10.657 10.589a2.742 2.742 0 0 1 2.751 2.733 2.74 2.74 0 0 1-2.751 2.733z" fill="#fff"/></svg>