<svg xmlns="http://www.w3.org/2000/svg" width="91" height="92" viewBox="0 0 91 92"><title>Shape 1</title><path d="M82.303 16.483H62.781c-3.469-21.132-31.076-21.122-34.543 0H8.717c-4.688 0-8.501 3.828-8.501 8.533v57.725c0 4.705 3.813 8.534 8.501 8.534h73.586c4.687 0 8.501-3.828 8.501-8.534V25.016c0-4.705-3.814-8.533-8.501-8.533zm0 68.138H8.717a1.878 1.878 0 0 1-1.873-1.88v-30.23l28.816 7.387v4.351a3.32 3.32 0 0 0 3.314 3.326h13.071a3.32 3.32 0 0 0 3.314-3.326v-4.351l28.816-7.387v30.23c0 1.037-.84 1.88-1.872 1.88zM34.985 16.307c1.954-11.904 19.095-11.902 21.049-.001l.03.177H34.956zm7.304 44.615v-9.367h6.442v9.367zm41.887-15.277l-28.817 7.386v-4.802a3.32 3.32 0 0 0-3.314-3.327H38.974a3.32 3.32 0 0 0-3.314 3.327v4.802L6.844 45.645V25.016c0-1.036.84-1.879 1.873-1.879h73.586c1.033 0 1.873.843 1.873 1.879z" fill="#fff"/></svg>