<svg xmlns="http://www.w3.org/2000/svg" width="108" height="84" viewBox="0 0 108 84"><title>Forma 1</title><path d="M106.608 78.57L57.838 1.94A3.415 3.415 0 0 0 55.021.36a3.396 3.396 0 0 0-2.856 1.53L1.39 78.52a3.52 3.52 0 0 0-.182 3.56 3.396 3.396 0 0 0 3.003 1.84h99.541c1.247 0 2.389-.69 2.983-1.81.59-1.12.548-2.47-.127-3.54zM54.93 10.11L77.972 46.3c-6.77-5.59-15.746-11.55-23.276-11.55-7.306 0-16.381 5.64-23.45 11.09zM41.54 49.86a13.576 13.576 0 0 0-.577 3.92c0 7.33 5.828 13.27 13.02 13.27 7.191 0 13.02-5.94 13.02-13.27 0-1.25-.182-2.45-.494-3.6 4.797 2.9 9.509 6.56 12.787 9.37-6.601 5.75-17.375 13.74-24.593 13.74-7.341 0-18.957-8.21-26.027-14 2.596-2.34 7.555-6.32 12.864-9.43zM21.011 61.3c3.253 2.89 13.026 11.26 22.776 15.69H10.613zm44.402 15.69C75.109 72.42 84.527 63.7 87.318 61l10.174 15.99z" fill="#fff"/></svg>