<svg xmlns="http://www.w3.org/2000/svg" width="111" height="62" viewBox="0 0 111 62"><title>Forma 1</title><path d="M103.49 4.22l-17.68 8.158.28-3.867 11.45-5.19a70.949 70.949 0 0 0-5.02-.162c-6.33 0-17.01 3.216-28.84 7.927L25.77 1.044a13.19 13.19 0 0 0-10.418 1.598l-1.864 1.176c-1.82 1.148-1.84 3.804-.037 4.979l22.791 14.847c-5.444 2.796-10.61 5.635-15.163 8.347L9.384 25.774a7.328 7.328 0 0 0-6.175-.329l-1.107.445a2.958 2.958 0 0 0-1.47 4.191l6.442 11.493.003-.001c-2.431 2.1-3.816 3.842-3.816 5.046 0 3.607 4.42 4.509 8.316 4.509 6.95 0 98.723-21.099 98.723-40.214 0-3.785-2.58-5.679-6.81-6.694zm-38.7 37.322l20.2-7.144c.89-.315 1.84.281 1.95 1.222l1.77 15.199a8.881 8.881 0 0 1-5.05 9.066l-1.89.884a2.934 2.934 0 0 1-3.45-.727L64.18 43.91a1.478 1.478 0 0 1 .61-2.368z" fill="#fff"/></svg>