<svg xmlns="http://www.w3.org/2000/svg" width="115" height="69" viewBox="0 0 115 69"><title>Forma 1</title><path d="M110.61 52.49V20.27l2.813-.96-2.813-.95-1.109-.38L56.831.12.231 19.31l20.846 7.08-.006.01 2.117.7 4.855 1.69.002-.01 29.178 9.28 28.898-9.41.004.02 6.415-2.19-.026-.07 15.446-5.24v30.87l-4.207 7.64 5.389 8.81 5.074-8.85zm-1.48 10.67l-2.033-3.92 1.942-4.11 2.095 4.15zM57.029 41.99l-26.5-8.43-1.384 6.09c-.297.5-.446 1.01-.446 1.52 0 4.78 20.914 16.74 27.386 16.74 6.672 0 29.658-12.08 29.658-16.74 0-.36-.072-.67-.181-1.14a21.4 21.4 0 0 1-.246-1.08l-1.371-5.6-26.718 8.7z" fill="#fff"/></svg>