<svg xmlns="http://www.w3.org/2000/svg" width="124" height="117" viewBox="0 0 124 117"><title>Forma 1</title><path d="M76.374 35.243c3.592 22.439-12.426 39.263-12.426 39.263S50.74 52.23 28.529 45.5c43.205 31.501 18.615 70.768 18.615 70.768H59.65c.004 0 29.074-50.018 16.724-81.025zM43.091 88.916c-3.402 5.871-7.341 9.953-7.341 9.953s1.568-5.449 4.97-11.313a55.618 55.618 0 0 1 2.192-3.452c-2.699.93-7.998 3.266-10.727 7.987-3.757 6.475-1.183 14.963-1.183 14.963s8.664-2.021 12.417-8.496c2.735-4.721 2.114-10.463 1.571-13.251a63.879 63.879 0 0 1-1.899 3.609zm37.569-4.805a52.534 52.534 0 0 1 2.19 3.445c3.405 5.879 4.971 11.313 4.971 11.313s-3.939-4.082-7.34-9.953a55.53 55.53 0 0 1-1.898-3.609c-.537 2.796-1.157 8.527 1.57 13.243 3.752 6.48 12.411 8.504 12.411 8.504s2.583-8.488-1.173-14.971c-2.735-4.713-8.03-7.049-10.731-7.972zM42.908 23.712a54.981 54.981 0 0 1-2.184-3.45c-3.402-5.869-4.974-11.31-4.974-11.31s3.939 4.077 7.337 9.956a49.6 49.6 0 0 1 1.896 3.606c.546-2.793 1.167-8.534-1.564-13.247C39.666 2.788 31.006.766 31.006.766s-2.57 8.486 1.183 14.965c2.729 4.717 8.028 7.047 10.719 7.981zM22.027 55.275c-6.8 0-12.312-1.366-12.312-1.366s5.512-1.369 12.312-1.369c1.444 0 2.804.078 4.087.171-2.156-1.867-6.83-5.274-12.299-5.274-7.502 0-13.586 6.468-13.586 6.468s6.088 6.472 13.586 6.468c5.465 0 10.139-3.403 12.296-5.266-1.284.097-2.65.168-4.084.168zm87.725-7.83c-5.463 0-10.137 3.395-12.297 5.266a52.049 52.049 0 0 1 4.084-.167c6.803 0 12.312 1.365 12.312 1.365s-5.509 1.366-12.304 1.366c-1.444 0-2.804-.071-4.092-.168 2.157 1.867 6.834 5.27 12.293 5.266 7.509 0 13.589-6.46 13.589-6.46s-6.088-6.472-13.585-6.468zM65.167 63.044c3.737-1.773 4.96-6.999 2.735-11.647-2.229-4.659-7.07-7.004-10.807-5.226-3.741 1.777-4.962 7.003-2.734 11.667 2.223 4.645 7.065 6.992 10.806 5.206zm-25.981 4.9a43.194 43.194 0 0 1-2.575 1.625c-4.392 2.526-8.464 3.699-8.464 3.699s3.051-2.932 7.444-5.461a41.613 41.613 0 0 1 2.702-1.413c-2.091-.402-6.39-.866-9.916 1.174-4.849 2.787-6.362 9.228-6.362 9.228s6.351 1.911 11.198-.877c3.535-2.032 5.278-5.97 5.973-7.975zm45.192-28.077a42.018 42.018 0 0 1 2.582-1.622c4.389-2.527 8.461-3.695 8.461-3.695s-3.051 2.928-7.444 5.453a37.693 37.693 0 0 1-2.697 1.411c2.088.404 6.381.867 9.905-1.166 4.853-2.793 6.362-9.232 6.362-9.232s-6.347-1.911-11.196.877c-3.535 2.032-5.276 5.966-5.973 7.974zm10.807 27.701c-3.528-2.032-7.817-1.576-9.912-1.174.868.414 1.775.881 2.701 1.413 4.392 2.529 7.443 5.457 7.443 5.457s-4.064-1.166-8.461-3.695a37.751 37.751 0 0 1-2.578-1.629c.697 2.009 2.438 5.947 5.969 7.972 4.846 2.795 11.2.884 11.2.884s-1.516-6.441-6.362-9.228zM28.381 40.252c3.529 2.029 7.821 1.566 9.916 1.166a37.423 37.423 0 0 1-2.699-1.411c-4.392-2.524-7.444-5.454-7.444-5.454s4.069 1.168 8.461 3.695a39.857 39.857 0 0 1 2.579 1.63c-.695-2.011-2.438-5.949-5.971-7.982-4.846-2.791-11.196-.876-11.196-.876s1.504 6.442 6.354 9.232zm32.384-15.907c0-5.059 1.019-9.155 1.019-9.155s1.023 4.099 1.023 9.155a37.27 37.27 0 0 1-.13 3.038c1.396-1.606 3.945-5.083 3.945-9.143 0-5.585-4.838-10.108-4.838-10.108s-4.838 4.523-4.838 10.108c0 4.06 2.549 7.537 3.941 9.143a40.855 40.855 0 0 1-.122-3.038zm10.752 11.847a19.17 19.17 0 0 1 2.461-3.342s-.522 1.832-1.669 3.8c-.24.415-.487.801-.735 1.16.911-.315 2.686-1.102 3.596-2.678 1.261-2.176.4-5.028.4-5.028s-2.91.686-4.167 2.856c-.911 1.578-.705 3.5-.522 4.444.183-.388.396-.796.636-1.212zm-19.529 1.614c-.24-.359-.488-.741-.733-1.16a18.675 18.675 0 0 1-1.665-3.792s1.318 1.373 2.461 3.334c.238.416.445.824.636 1.212.179-.936.391-2.862-.522-4.444-1.261-2.174-4.164-2.852-4.164-2.852s-.864 2.848.395 5.025c.914 1.579 2.691 2.362 3.592 2.677zm28.683 16.507c.724.623 2.293 1.766 4.122 1.766 2.518 0 4.556-2.17 4.556-2.17s-2.038-2.171-4.556-2.171c-1.829 0-3.398 1.145-4.122 1.766.43-.03.884-.055 1.372-.055 2.277 0 4.133.456 4.133.456s-1.856.46-4.133.456c-.488.011-.942-.016-1.372-.048zm-.194-35.416c3.398-5.872 7.34-9.949 7.34-9.949s-1.569 5.441-4.975 11.31a53.007 53.007 0 0 1-2.182 3.445c2.701-.929 7.996-3.263 10.719-7.976C95.135 9.248 92.564.754 92.564.754s-8.655 2.027-12.415 8.502c-2.739 4.717-2.114 10.453-1.573 13.247a60.59 60.59 0 0 1 1.901-3.606z" fill="#fff"/></svg>