<svg xmlns="http://www.w3.org/2000/svg" width="88" height="98" viewBox="0 0 88 98"><title>Forma 1</title><path d="M18.786 34.32c.439-4.05 4.085-6.98 8.143-6.55 4.059.43 6.992 4.06 6.554 8.11-.439 4.05-4.083 6.99-8.142 6.56-4.059-.44-6.994-4.07-6.555-8.12zm31.726-12.75c.282-2.59 2.616-4.47 5.221-4.2 2.602.28 4.485 2.61 4.204 5.2a4.756 4.756 0 0 1-5.222 4.21 4.728 4.728 0 0 1-4.203-5.21zM87.38 59.78c-2.772 3.01-7.489 3.12-7.489 3.12s3.065 5.72 1.688 7.3c-1.379 1.59-5.204.91-5.204.91s3.556 2.53 3.556 4.48c0 1.96-6.009 4.56-6.009 4.56s1.104 10.84-7.926 10.09c-9.02-.75-10.538-3.25-10.538-3.25l-2.671 10.95H17.863l1.223-23.82S-2.36 51.22 1.012 30.73C2.708 22.55 1.626 5.41 30.424.89c28.796-4.53 54.739 9.85 48.215 41.27 0 5.73 11.52 14.62 8.741 17.62zM44.207 38.14l.123-7.33-2.103-2.6-3.826-.06a14.49 14.49 0 0 0-.941-1.82c.647-.89 1.945-2.66 1.945-2.66l-.499-3.31-5.928-4.31-3.315.5-2.506 3.42c-.703-.04-1.406-.04-2.093.03-.725-1.05-2.167-3.15-2.167-3.15l-3.332-.36-6.062 4.16-.36 3.33s1.181 1.72 1.774 2.58c-.509.81-.947 1.68-1.306 2.59-.946-.02-2.842-.07-2.842-.07l-2.614 2.11-.197 7.32a344.446 344.446 0 0 0 2.1 2.6s2.495.07 3.744.1c.326.75.713 1.47 1.152 2.15l-1.737 2.92.499 3.31 6.313 3.74.442.16 2.877-.66 2.015-3.38c.791.03 1.565-.01 2.332-.13l2.012 2.97 3.331.35 6.087-4.12s.619-2.7.557-2.86c-.067-.15-.197-.46-.197-.46l-1.913-2.82c.404-.69.764-1.42 1.06-2.19.988.02 2.965.05 2.965.05zM59.613 9.85l-2.129.32s-1.07 1.46-1.607 2.2a8.577 8.577 0 0 0-1.342.01c-.465-.67-1.394-2.02-1.394-2.02l-2.137-.23-3.893 2.67-.231 2.14 1.14 1.65c-.326.52-.606 1.08-.839 1.67-.608-.02-1.822-.05-1.822-.05l-1.675 1.35-.129 4.7 1.347 1.67 2.404.06c.211.48.456.95.74 1.38-.373.62-1.114 1.87-1.114 1.87l.32 2.12 4.046 2.41.286.1 1.843-.42s.864-1.45 1.292-2.18c.511.02 1.007 0 1.498-.08.431.64 1.292 1.9 1.292 1.9l2.135.23 3.909-2.64s.401-1.74.357-1.84c-.043-.09-.126-.29-.126-.29s-.818-1.21-1.228-1.81c.258-.44.493-.91.683-1.4l1.902.03 1.675-1.35.077-4.69-1.346-1.67s-1.634-.03-2.454-.04c-.179-.41-.371-.8-.603-1.17.414-.57 1.247-1.7 1.247-1.7l-.32-2.12z" fill="#fff"/></svg>