<svg xmlns="http://www.w3.org/2000/svg" width="61" height="49" viewBox="0 0 61 49"><title>Forma 1 copy</title><path d="M61 15.31v27.56c0 3.37-2.745 6.13-6.1 6.13H6.1C2.745 49 0 46.24 0 42.87V15.31c0-3.37 2.745-6.12 6.1-6.12h7.32c1.006 0 2.09-.79 2.409-1.74l1.892-5.71C18.039.78 19.124 0 20.13 0h20.74c1.007 0 2.09.78 2.409 1.74l1.892 5.7c.318.96 1.402 1.75 2.409 1.75h7.32c3.355 0 6.1 2.75 6.1 6.12zM45.75 27.56c0-8.45-6.829-15.31-15.25-15.31-8.422 0-15.25 6.86-15.25 15.31 0 8.46 6.828 15.31 15.25 15.31 8.421 0 15.25-6.85 15.25-15.31zm-6.1 0c0 5.08-4.097 9.19-9.15 9.19-5.054 0-9.15-4.11-9.15-9.19 0-5.07 4.096-9.18 9.15-9.18 5.053 0 9.15 4.11 9.15 9.18zM54.9 17.45c0-1.18-.955-2.14-2.135-2.14a2.14 2.14 0 0 0-2.135 2.14c0 1.19.957 2.15 2.135 2.15a2.14 2.14 0 0 0 2.135-2.15z" fill="#c9d3dc"/></svg>