<svg xmlns="http://www.w3.org/2000/svg" width="14" height="14" viewBox="0 0 14 14"><title>Forma 1</title><path d="M12.34 1.659c-.439-.44-.97-.66-1.589-.66H3.25c-.62 0-1.15.22-1.591.66-.44.44-.66.971-.66 1.59v7.501c0 .62.22 1.15.66 1.591.441.44.971.66 1.591.66h7.501c.619 0 1.15-.22 1.589-.66.441-.441.661-.971.661-1.591V3.249c0-.619-.22-1.15-.661-1.59zM11.001 7.25a.468.468 0 0 1-.305.461.547.547 0 0 1-.196.039.464.464 0 0 1-.351-.148L9.024 6.476l-4.172 4.173a.483.483 0 0 1-.352.148.48.48 0 0 1-.352-.148l-.797-.797a.48.48 0 0 1-.148-.352.48.48 0 0 1 .148-.351l4.173-4.173-1.125-1.125c-.162-.151-.198-.333-.11-.547a.468.468 0 0 1 .461-.305h3.75c.136 0 .253.05.352.149a.48.48 0 0 1 .149.351z" fill="#4ca7f8"/></svg>