<svg xmlns="http://www.w3.org/2000/svg" width="32" height="25" viewBox="0 0 32 25"><title>Forma 1</title><path d="M32 5.769v17.307C32 24.134 31.1 25 30 25H2c-1.1 0-2-.866-2-1.924V5.769c0-1.058.9-1.923 2-1.923h7C9.5 1.923 10 0 12 0h8c2 0 2.5 1.923 3 3.846h7c1.1 0 2 .865 2 1.923zm-7.125 8.654c0-4.713-3.973-8.534-8.875-8.534-4.901 0-8.875 3.821-8.875 8.534 0 4.713 3.974 8.533 8.875 8.533 4.902 0 8.875-3.82 8.875-8.533zM16 8.173c3.59 0 6.5 2.798 6.5 6.25s-2.91 6.25-6.5 6.25-6.5-2.798-6.5-6.25 2.91-6.25 6.5-6.25zm14-.481h-4v1.923h4z" fill="#fff"/></svg>