<svg xmlns="http://www.w3.org/2000/svg" width="12" height="10" viewBox="0 0 12 10"><title>Forma 1</title><path d="M10.45.55A1.791 1.791 0 0 0 9.126 0H2.875c-.517 0-.959.18-1.325.55a1.81 1.81 0 0 0-.551 1.32v6.26c0 .51.184.95.551 1.32.366.37.808.55 1.325.55h6.251c.516 0 .958-.18 1.324-.55.367-.37.551-.81.551-1.32V1.87c0-.51-.184-.95-.551-1.32zM9.334 5.21c0 .18-.085.31-.254.38a.49.49 0 0 1-.163.03.393.393 0 0 1-.293-.12l-.938-.94L4.21 8.04a.409.409 0 0 1-.293.12.41.41 0 0 1-.294-.12l-.664-.66a.418.418 0 0 1 0-.59l3.477-3.48-.937-.93c-.135-.13-.165-.28-.091-.46a.384.384 0 0 1 .384-.25h3.125c.113 0 .211.04.293.12.083.08.124.18.124.29z" fill="#134288"/></svg>