<svg xmlns="http://www.w3.org/2000/svg" width="12" height="14" viewBox="0 0 12 14"><title>Forma 1</title><path d="M6 6.85c1.462 0 2.647-1.54 2.647-3.43C8.647 1.53 8.258 0 6 0S3.353 1.53 3.353 3.42 4.538 6.85 6 6.85zm4.999 5.31c.002-.03.001-.21 0 0zM1 12.07c0-.11-.001-.03 0 0zm9.994-.13c-.049-3.3-.453-4.24-3.545-4.83 0 0-.435.59-1.449.59s-1.45-.59-1.45-.59c-3.057.59-3.486 1.51-3.542 4.72-.005.26-.007.27-.008.24l.001.35S1.737 14 6 14s4.999-1.58 4.999-1.58v-.26c-.001.02-.002-.01-.005-.22z" fill="#d1d1d1"/></svg>