<svg xmlns="http://www.w3.org/2000/svg" width="48" height="48" viewBox="0 0 48 48"><title>Shape 1</title><path d="M47.02 7.347h-4.898V.98a.98.98 0 0 0-.979-.98H.98A.98.98 0 0 0 0 .98v38.693c0 .541.439.98.98.98h4.898v6.367c0 .541.438.98.979.98h30.367a.98.98 0 0 0 .693-.287l9.796-9.796a.983.983 0 0 0 .285-.693H48V8.327a.98.98 0 0 0-.98-.98zm-41.142.98v30.367H1.959V1.959h38.204v5.388H6.857a.98.98 0 0 0-.979.98zm40.163 27.918h-8.817a.98.98 0 0 0-.979.979v8.817H7.837V9.306h38.204zM40 16v-2H12v2zm0 12v-2H12v2zm-1.796 16.655v-6.451h6.451zM27 22v-2H12v2zm0 12v-2H12v2zm-11 6v-2h-4v2zm5 0v-2h-4v2zm4 0v-2h-3v2z" fill="#4ca7f8"/></svg>