<svg xmlns="http://www.w3.org/2000/svg" width="45" height="49" viewBox="0 0 45 49"><title>Shape 1</title><path d="M12.826 32.604h26.681c3.025 0 5.493-2.447 5.493-5.446V15.912c0-.02 0-.039-.01-.059 0-.02-.01-.049-.01-.069 0-.02-.01-.04-.01-.059-.01-.02-.01-.04-.02-.07-.01-.019-.01-.039-.02-.059-.01-.02-.01-.039-.02-.059-.009-.02-.019-.039-.029-.069a.21.21 0 0 0-.03-.049l-.03-.06c-.01-.019-.02-.029-.03-.049-.01-.02-.03-.039-.04-.059a.16.16 0 0 0-.04-.049c-.01-.02-.029-.03-.039-.05-.01-.019-.03-.029-.04-.049-.01-.02-.03-.03-.04-.039l-.05-.05c-.02-.01-.03-.03-.05-.039-.019-.01-.039-.03-.059-.04-.02-.01-.03-.019-.05-.029a.21.21 0 0 1-.06-.04l-.059-.029-.06-.03-.06-.03c-.02-.009-.04-.009-.06-.019a.176.176 0 0 0-.069-.02c-.02 0-.04-.01-.05-.01-.03-.01-.05-.01-.08-.01-.01 0-.02-.01-.039-.01l-33.817-4.626V5.406c0-.05 0-.099-.01-.139 0-.01 0-.019-.01-.039 0-.03-.01-.059-.01-.089-.01-.029-.01-.049-.02-.079 0-.02-.01-.029-.01-.049l-.03-.089c0-.01-.01-.029-.01-.039a.276.276 0 0 0-.039-.079c-.01-.01-.01-.03-.02-.04a.205.205 0 0 0-.04-.059c-.01-.02-.02-.03-.03-.049-.01-.02-.02-.03-.03-.05-.01-.019-.03-.039-.04-.059l-.029-.029-.06-.06-.03-.029a.388.388 0 0 0-.07-.059c-.01-.01-.029-.02-.039-.03-.02-.02-.04-.03-.06-.049a.922.922 0 0 0-.08-.05c-.01-.009-.02-.009-.03-.019-.039-.02-.089-.04-.129-.059L1.868 1.104a1.346 1.346 0 0 0-1.761.71c-.289.681.03 1.461.716 1.747l6.509 2.722v29.182c0 2.762 2.09 5.051 4.787 5.396a5.342 5.342 0 0 0-.776 2.762c0 2.97 2.438 5.377 5.423 5.377 2.986 0 5.424-2.417 5.424-5.377 0-.986-.268-1.923-.746-2.712h12.082a5.262 5.262 0 0 0-.747 2.712c0 2.97 2.438 5.377 5.424 5.377 2.985 0 5.424-2.417 5.424-5.377 0-2.959-2.439-5.376-5.424-5.376H12.826c-1.553 0-2.807-1.253-2.807-2.782v-3.611c.816.474 1.781.75 2.807.75zm28.124 11.01c0 1.499-1.234 2.713-2.737 2.713-1.503 0-2.737-1.224-2.737-2.713 0-1.49 1.234-2.713 2.737-2.713 1.503 0 2.737 1.213 2.737 2.713zm-21.437 0c0 1.499-1.234 2.713-2.737 2.713-1.502 0-2.736-1.224-2.736-2.713 0-1.49 1.234-2.713 2.736-2.713 1.503 0 2.737 1.213 2.737 2.713zM39.507 29.94H12.826c-1.553 0-2.807-1.252-2.807-2.782V12.765l32.294 4.41v9.973a2.8 2.8 0 0 1-2.806 2.792z" fill="#4ca7f8"/></svg>