<svg xmlns="http://www.w3.org/2000/svg" width="16" height="16" viewBox="0 0 16 16"><title>Плитка</title><defs><clipPath id="a"><path d="M852 580v-7h7v7z" fill="#fff"/></clipPath><clipPath id="b"><path d="M852 589v-7h7v7z" fill="#fff"/></clipPath><clipPath id="c"><path d="M861 580v-7h7v7z" fill="#fff"/></clipPath><clipPath id="d"><path d="M861 589v-7h7v7z" fill="#fff"/></clipPath></defs><path d="M0 7V0h7v7z" fill="#d1d1d1"/><path d="M852 580v-7h7v7z" fill="none" stroke-dasharray="0" stroke="#d1d1d1" stroke-miterlimit="50" stroke-width="4" clip-path="url(&amp;quot;#a&amp;quot;)" transform="translate(-852 -573)"/><path d="M0 16V9h7v7z" fill="#d1d1d1"/><path d="M852 589v-7h7v7z" fill="none" stroke-dasharray="0" stroke="#d1d1d1" stroke-miterlimit="50" stroke-width="4" clip-path="url(&amp;quot;#b&amp;quot;)" transform="translate(-852 -573)"/><path d="M9 7V0h7v7z" fill="#d1d1d1"/><path d="M861 580v-7h7v7z" fill="none" stroke-dasharray="0" stroke="#d1d1d1" stroke-miterlimit="50" stroke-width="4" clip-path="url(&amp;quot;#c&amp;quot;)" transform="translate(-852 -573)"/><path d="M9 16V9h7v7z" fill="#d1d1d1"/><path d="M861 589v-7h7v7z" fill="none" stroke-dasharray="0" stroke="#d1d1d1" stroke-miterlimit="50" stroke-width="4" clip-path="url(&amp;quot;#d&amp;quot;)" transform="translate(-852 -573)"/></svg>