<svg id="SvgjsSvg1000" xmlns="http://www.w3.org/2000/svg" version="1.1" xmlns:xlink="http://www.w3.org/1999/xlink" xmlns:svgjs="http://svgjs.com/svgjs" width="14" height="9" viewBox="0 0 14 9"><title>Forma 1</title><desc>Created with Avocode.</desc><defs id="SvgjsDefs1001"></defs><path id="SvgjsPath1007" d="M1114.75 252.138C1114.58 251.958 1114.28 251.958 1114.1 252.138C1113.9199999999998 252.31300000000002 1113.9199999999998 252.603 1114.1 252.77700000000002L1117.4199999999998 256.046L1106.4599999999998 256.046C1106.1999999999998 256.04699999999997 1105.9999999999998 256.247 1105.9999999999998 256.498C1105.9999999999998 256.75 1106.1999999999998 256.956 1106.4599999999998 256.956L1117.4199999999998 256.956L1114.1 260.22C1113.9199999999998 260.40000000000003 1113.9199999999998 260.69100000000003 1114.1 260.865C1114.28 261.045 1114.58 261.045 1114.75 260.865L1118.86 256.821C1119.05 256.64700000000005 1119.05 256.357 1118.86 256.18300000000005Z " fill="#007dfe" fill-opacity="1" transform="matrix(1,0,0,1,-1106,-252)"></path></svg>