<svg id="SvgjsSvg1052" xmlns="http://www.w3.org/2000/svg" version="1.1" xmlns:xlink="http://www.w3.org/1999/xlink" xmlns:svgjs="http://svgjs.com/svgjs" width="47" height="47" viewBox="0 0 47 47"><title>Forma 1</title><desc>Created with Avocode.</desc><defs id="SvgjsDefs1053"></defs><path id="SvgjsPath1054" d="M966.662 534.173C965.736 534.173 965.0010000000001 533.413 965.0010000000001 532.488C965.0010000000001 531.5630000000001 965.7360000000001 530.8270000000001 966.662 530.8270000000001L986.8140000000001 530.8270000000001L986.8140000000001 510.6850000000001C986.815 509.7590000000001 987.575 509.0000000000001 988.5010000000001 509.0000000000001C989.426 509.0000000000001 990.162 509.7590000000001 990.162 510.6850000000001L990.162 530.8270000000001L1010.3100000000001 530.8270000000001C1011.24 530.8270000000001 1012.0000000000001 531.5630000000001 1012.0000000000001 532.488C1012.0000000000001 533.413 1011.2400000000001 534.173 1010.3100000000001 534.173L990.162 534.173L990.162 554.315C990.162 555.2410000000001 989.426 556 988.5010000000001 556C987.575 556 986.815 555.241 986.815 554.315L986.815 534.173Z " fill="#ffffff" fill-opacity="1" transform="matrix(1,0,0,1,-965,-509)"></path></svg>