<svg id="SvgjsSvg1049" xmlns="http://www.w3.org/2000/svg" version="1.1" xmlns:xlink="http://www.w3.org/1999/xlink" xmlns:svgjs="http://svgjs.com/svgjs" width="14" height="14" viewBox="0 0 14 14"><title>Forma 1</title><desc>Created with Avocode.</desc><defs id="SvgjsDefs1050"></defs><path id="SvgjsPath1051" d="M403.34 758.659C402.90099999999995 758.2189999999999 402.36999999999995 757.999 401.751 757.999L394.25 757.999C393.63 757.999 393.1 758.219 392.659 758.659C392.219 759.099 391.99899999999997 759.63 391.99899999999997 760.249L391.99899999999997 767.75C391.99899999999997 768.37 392.219 768.9 392.659 769.341C393.09999999999997 769.7810000000001 393.63 770.001 394.25 770.001L401.751 770.001C402.37 770.001 402.90099999999995 769.781 403.34 769.341C403.78099999999995 768.9 404.001 768.37 404.001 767.75L404.001 760.249C404.001 759.63 403.78099999999995 759.099 403.34 758.659ZM402.001 764.25C402.001 764.469 401.899 764.622 401.69599999999997 764.711C401.628 764.737 401.563 764.75 401.49999999999994 764.75C401.35999999999996 764.75 401.24299999999994 764.701 401.14899999999994 764.602L400.02399999999994 763.476L395.8519999999999 767.649C395.7519999999999 767.748 395.63499999999993 767.797 395.49999999999994 767.797C395.3639999999999 767.797 395.24699999999996 767.748 395.14799999999997 767.649L394.35099999999994 766.852C394.25199999999995 766.7529999999999 394.2029999999999 766.636 394.2029999999999 766.5C394.2029999999999 766.365 394.2519999999999 766.248 394.35099999999994 766.149L398.52399999999994 761.976L397.39899999999994 760.851C397.23699999999997 760.7 397.20099999999996 760.518 397.28899999999993 760.304C397.37799999999993 760.101 397.53099999999995 759.999 397.74999999999994 759.999L401.49999999999994 759.999C401.63599999999997 759.999 401.75299999999993 760.049 401.8519999999999 760.148C401.9509999999999 760.2470000000001 402.0009999999999 760.364 402.0009999999999 760.499Z " fill="#4ca7f8" fill-opacity="1" transform="matrix(1,0,0,1,-391,-757)"></path></svg>