<svg id="SvgjsSvg1086" xmlns="http://www.w3.org/2000/svg" version="1.1" xmlns:xlink="http://www.w3.org/1999/xlink" xmlns:svgjs="http://svgjs.com/svgjs" width="12" height="10" viewBox="0 0 12 10"><title>Forma 1</title><desc>Created with Avocode.</desc><defs id="SvgjsDefs1087"></defs><path id="SvgjsPath1088" d="M359.45 1498.55C359.084 1498.18 358.642 1498 358.126 1498L351.875 1498C351.358 1498 350.916 1498.18 350.55 1498.55C350.183 1498.9199999999998 349.999 1499.36 349.999 1499.87L349.999 1506.1299999999999C349.999 1506.6399999999999 350.18300000000005 1507.08 350.55 1507.4499999999998C350.916 1507.8199999999997 351.358 1507.9999999999998 351.875 1507.9999999999998L358.126 1507.9999999999998C358.642 1507.9999999999998 359.084 1507.8199999999997 359.45 1507.4499999999998C359.817 1507.08 360.001 1506.6399999999999 360.001 1506.1299999999999L360.001 1499.87C360.001 1499.36 359.81699999999995 1498.9199999999998 359.45 1498.55ZM358.334 1503.21C358.334 1503.39 358.249 1503.52 358.08 1503.5900000000001C358.02299999999997 1503.6100000000001 357.969 1503.6200000000001 357.917 1503.6200000000001C357.79999999999995 1503.6200000000001 357.702 1503.5800000000002 357.62399999999997 1503.5000000000002L356.686 1502.5600000000002L353.21 1506.0400000000002C353.12699999999995 1506.1200000000001 353.029 1506.16 352.917 1506.16C352.804 1506.16 352.70599999999996 1506.1200000000001 352.623 1506.0400000000002L351.959 1505.38C351.877 1505.2900000000002 351.836 1505.2 351.836 1505.0800000000002C351.836 1504.9700000000003 351.877 1504.8700000000001 351.959 1504.7900000000002L355.436 1501.3100000000002L354.49899999999997 1500.38C354.364 1500.25 354.33399999999995 1500.1000000000001 354.40799999999996 1499.92C354.48099999999994 1499.75 354.609 1499.67 354.792 1499.67L357.917 1499.67C358.03 1499.67 358.128 1499.71 358.21 1499.79C358.293 1499.87 358.334 1499.97 358.334 1500.08Z " fill="#134288" fill-opacity="1" transform="matrix(1,0,0,1,-349,-1498)"></path></svg>