<svg id="SvgjsSvg1081" xmlns="http://www.w3.org/2000/svg" version="1.1" xmlns:xlink="http://www.w3.org/1999/xlink" xmlns:svgjs="http://svgjs.com/svgjs" width="10" height="10" viewBox="0 0 10 10"><title>Ellipse 7</title><desc>Created with Avocode.</desc><defs id="SvgjsDefs1082"><clipPath id="SvgjsClipPath1085"><path id="SvgjsPath1084" d="M355 1566C357.761 1566 360 1568.24 360 1571C360 1573.76 357.761 1576 355 1576C352.239 1576 350 1573.76 350 1571C350 1568.24 352.239 1566 355 1566Z " fill="#ffffff"></path></clipPath></defs><path id="SvgjsPath1083" d="M355 1566C357.761 1566 360 1568.24 360 1571C360 1573.76 357.761 1576 355 1576C352.239 1576 350 1573.76 350 1571C350 1568.24 352.239 1566 355 1566Z " fill-opacity="0" fill="#ffffff" stroke-dasharray="0" stroke-linejoin="miter" stroke-linecap="butt" stroke-opacity="1" stroke="#a0b652" stroke-miterlimit="50" stroke-width="6" clip-path="url(&quot;#SvgjsClipPath1085&quot;)" transform="matrix(1,0,0,1,-350,-1566)"></path></svg>