<svg id="SvgjsSvg1075" xmlns="http://www.w3.org/2000/svg" version="1.1" xmlns:xlink="http://www.w3.org/1999/xlink" xmlns:svgjs="http://svgjs.com/svgjs" width="32" height="25" viewBox="0 0 32 25"><title>Forma 1</title><desc>Created with Avocode.</desc><defs id="SvgjsDefs1076"></defs><path id="SvgjsPath1077" d="M262 193.769L262 211.076C262 212.134 261.1 213 260 213L232 213C230.9 213 230 212.134 230 211.076L230 193.769C230 192.711 230.9 191.846 232 191.846L239 191.846C239.5 189.923 240 188 242 188L250 188C252 188 252.5 189.923 253 191.846L260 191.846C261.1 191.846 262 192.711 262 193.769ZM254.875 202.423C254.875 197.71 250.902 193.889 246 193.889C241.099 193.889 237.125 197.71 237.125 202.423C237.125 207.136 241.099 210.956 246 210.956C250.902 210.956 254.875 207.136 254.875 202.423ZM246 196.173C249.59 196.173 252.5 198.971 252.5 202.423C252.5 205.875 249.59 208.673 246 208.673C242.41 208.673 239.5 205.875 239.5 202.423C239.5 198.971 242.41 196.173 246 196.173ZM260 195.692L256 195.692L256 197.615L260 197.615Z " fill="#ffffff" fill-opacity="1" transform="matrix(1,0,0,1,-230,-188)"></path></svg>