<svg id="SvgjsSvg1078" xmlns="http://www.w3.org/2000/svg" version="1.1" xmlns:xlink="http://www.w3.org/1999/xlink" xmlns:svgjs="http://svgjs.com/svgjs" width="61" height="49" viewBox="0 0 61 49"><title>Forma 1 copy</title><desc>Created with Avocode.</desc><defs id="SvgjsDefs1079"></defs><path id="SvgjsPath1080" d="M610 1048.31L610 1075.87C610 1079.2399999999998 607.255 1082 603.9 1082L555.1 1082C551.745 1082 549 1079.24 549 1075.87L549 1048.31C549 1044.94 551.745 1042.19 555.1 1042.19L562.4200000000001 1042.19C563.426 1042.19 564.5100000000001 1041.4 564.8290000000001 1040.45L566.7210000000001 1034.74C567.0390000000001 1033.78 568.1240000000001 1033 569.1300000000001 1033L589.8700000000001 1033C590.8770000000001 1033 591.9600000000002 1033.78 592.2790000000001 1034.74L594.1710000000002 1040.44C594.4890000000001 1041.4 595.5730000000002 1042.19 596.5800000000002 1042.19L603.9000000000002 1042.19C607.2550000000002 1042.19 610.0000000000002 1044.94 610.0000000000002 1048.31ZM594.75 1060.56C594.75 1052.11 587.921 1045.25 579.5 1045.25C571.078 1045.25 564.25 1052.11 564.25 1060.56C564.25 1069.02 571.078 1075.87 579.5 1075.87C587.921 1075.87 594.75 1069.02 594.75 1060.56ZM588.65 1060.56C588.65 1065.6399999999999 584.553 1069.75 579.5 1069.75C574.446 1069.75 570.35 1065.64 570.35 1060.56C570.35 1055.49 574.446 1051.3799999999999 579.5 1051.3799999999999C584.553 1051.3799999999999 588.65 1055.4899999999998 588.65 1060.56ZM603.9 1050.45C603.9 1049.27 602.9449999999999 1048.31 601.765 1048.31C600.587 1048.31 599.63 1049.27 599.63 1050.45C599.63 1051.64 600.587 1052.6000000000001 601.765 1052.6000000000001C602.9449999999999 1052.6000000000001 603.9 1051.64 603.9 1050.45Z " fill="#c9d3dc" fill-opacity="1" transform="matrix(1,0,0,1,-549,-1033)"></path></svg>