<svg id="SvgjsSvg1000" xmlns="http://www.w3.org/2000/svg" version="1.1" xmlns:xlink="http://www.w3.org/1999/xlink" xmlns:svgjs="http://svgjs.com/svgjs" width="15" height="15" viewBox="0 0 15 15"><title>Forma 1</title><desc>Created with Avocode.</desc><defs id="SvgjsDefs1001"></defs><path id="SvgjsPath1007" d="M1119.53 30L1112.97 30C1112.71 30 1112.5 30.2098 1112.5 30.4686C1112.5 30.7274 1112.71 30.9374 1112.97 30.9374L1119.06 30.9374L1119.06 44.0624L1112.97 44.0624C1112.71 44.0624 1112.5 44.2724 1112.5 44.531C1112.5 44.7898 1112.71 45 1112.97 45L1119.53 45C1119.79 45 1120 44.7898 1120 44.531L1120 30.4686C1120 30.209799999999998 1119.79 30 1119.53 30ZM1112.68 40.4531C1112.5 40.6384 1112.5 40.9377 1112.68 41.1224C1112.8700000000001 41.3077 1113.16 41.3077 1113.3500000000001 41.1224L1116.5800000000002 37.8416C1116.7600000000002 37.6593 1116.7600000000002 37.3541 1116.5800000000002 37.1718L1113.3500000000001 33.891C1113.16 33.7059 1112.8700000000001 33.706399999999995 1112.68 33.891C1112.5 34.0758 1112.5 34.375699999999995 1112.68 34.5603L1115.1200000000001 37.0332L1105.47 37.0332C1105.21 37.0332 1105 37.2448 1105 37.5066C1105 37.7681 1105.21 37.9799 1105.47 37.9799L1115.1200000000001 37.9799Z " fill="#ffffff" fill-opacity="1" transform="matrix(1,0,0,1,-1105,-30)"></path></svg>